<svg xmlns="http://www.w3.org/2000/svg" style="position:absolute; width: 0; height: 0;"><symbol viewBox="0 0 14 14" id="zd-svg-icon-14-adjust"><path stroke="currentColor" stroke-linecap="round" d="M3 1.5v11m4-11v11m4-11v11m-6-9h4m-8 7h4m4-3h4"></path></symbol><symbol viewBox="0 0 14 14" id="zd-svg-icon-14-agent"><circle cx="7" cy="7" r="5.5" fill="none" stroke="currentColor"></circle><g fill="currentColor"><circle cx="7" cy="6.1" r="1.2"></circle><path d="M7 7.6c-1 0-1.8.7-2 1.7h4c-.1-1-1-1.7-2-1.7z"></path></g></symbol><symbol viewBox="0 0 14 14" id="zd-svg-icon-14-align-center"><path stroke="currentColor" stroke-linecap="round" d="M1.5 1.5h11m-10 8h9m-7-2h5m-5 4h5m-8-6h11m-8-2h5"></path></symbol><symbol viewBox="0 0 14 14" id="zd-svg-icon-14-align-left"><path stroke="currentColor" stroke-linecap="round" d="M1.5 1.5h11m-11 8h9m-9-2h7m-7 4h7m-7-6h11m-11-2h7"></path></symbol><symbol viewBox="0 0 14 14" id="zd-svg-icon-14-align-right"><path stroke="currentColor" stroke-linecap="round" d="M1.5 1.5h11m-9 8h9m-7-2h7m-7 4h7m-11-6h11m-7-2h7"></path></symbol><symbol viewBox="0 0 14 14" id="zd-svg-icon-14-app"><path fill="currentColor" d="M2 4.9v5l4.4 2.6V7.6zm10 0v5l-4.4 2.6V7.6zm-.4-.8L7.1 1.5 2.6 4.1l4.5 2.6z"></path></symbol><symbol viewBox="0 0 14 14" id="zd-svg-icon-14-arrange"><path fill="none" stroke="currentColor" stroke-linecap="round" stroke-linejoin="round" d="M11.5 5.5v-5h-5m-2 7l7-7m-9 8v5h5m2-7l-7 7"></path></symbol><symbol viewBox="0 0 14 14" id="zd-svg-icon-14-attachment"><path fill="none" stroke="currentColor" stroke-linecap="round" stroke-linejoin="round" d="M6 4.6v5c0 .6.5 1.1 1.1 1.1s1.1-.5 1.1-1.1V2.7C8.2 1.5 7.2.5 6 .5s-2.2 1-2.2 2.2v7.5c0 1.8 1.5 3.3 3.3 3.3s3.3-1.5 3.3-3.3V4.6"></path></symbol><symbol viewBox="0 0 14 14" id="zd-svg-icon-14-bar-chart"><g fill="currentColor"><rect width="3.704" height="6.173" x=".21" y="7" rx=".309"></rect><rect width="3.704" height="12.346" x="10.086" y=".827" rx=".309"></rect><rect width="3.704" height="9.259" x="5.148" y="3.914" rx=".309"></rect></g></symbol><symbol viewBox="0 0 14 14" id="zd-svg-icon-14-bold"><path fill="currentColor" d="M3 2h3.6c.9 0 2.1 0 2.6.4.7.4 1.2 1.1 1.2 2.1 0 1.1-.5 1.9-1.5 2.2 1.2.3 1.9 1.2 1.9 2.4 0 1.5-1.1 2.9-3 2.9H3V2zm1.3 4.3H7c1.5 0 2.1-.5 2.1-1.6 0-1.4-1-1.6-2.1-1.6H4.3v3.2zm0 4.6h3.3c1.2 0 1.9-.7 1.9-1.8 0-1.3-1.1-1.7-2.2-1.7h-3v3.5z"></path></symbol><symbol viewBox="0 0 14 14" id="zd-svg-icon-14-browser"><path fill="currentColor" d="M6 10.5h2v2H6v-2z"></path><path fill="none" stroke="currentColor" stroke-linecap="round" stroke-linejoin="round" d="M1.5 1.5h11v9h-11v-9zm2 11h7"></path></symbol><symbol viewBox="0 0 14 14" id="zd-svg-icon-14-call-in"><path fill="currentColor" d="M2.33 1c-.78.48-1.21 1.11-1.31 1.9C.82 4.55 2.15 7 4.59 9.43 5.67 10.5 8.42 13 10.75 13c.96 0 1.7-.44 2.25-1.34-.1-.62-2.88-2.96-3.54-2.97-.26.1-.42.28-.6.48-.21.25-.46.53-.88.68-.06.02-.14.03-.22.03-.84 0-2.43-1.51-3.17-2.54-.4-.58-.55-1.01-.44-1.33.15-.41.42-.66.67-.87.21-.18.39-.34.49-.6 0-.23-.51-1.14-1.47-2.23-.8-.9-1.33-1.27-1.51-1.31zm10 2.2l-1.56-1.56-2.76 2.75L7 3.38V7h3.62L9.57 5.95"></path></symbol><symbol viewBox="0 0 14 14" id="zd-svg-icon-14-call-out"><path fill="currentColor" d="M2.33 1c-.78.48-1.21 1.11-1.31 1.9C.82 4.55 2.15 7 4.59 9.43 5.67 10.5 8.42 13 10.75 13c.96 0 1.7-.44 2.25-1.34-.1-.62-2.88-2.96-3.54-2.97-.26.1-.42.28-.6.48-.21.25-.46.53-.88.68-.06.02-.14.03-.22.03-.84 0-2.43-1.51-3.17-2.54-.4-.58-.55-1.01-.44-1.33.15-.41.42-.66.67-.87.21-.18.39-.34.49-.6 0-.23-.51-1.14-1.47-2.23-.8-.9-1.33-1.27-1.51-1.31zm4.34 4.8l1.56 1.56 2.76-2.75L12 5.62V2H8.38l1.05 1.05"></path></symbol><symbol viewBox="0 0 14 14" id="zd-svg-icon-14-checkbox"><g fill="none" stroke="currentColor"><path d="M11.4 1.5h-9c-.5 0-.8.4-.8.8v9.3c0 .5.4.8.8.8h9.3c.5 0 .8-.4.8-.8v-9c0-.6-.5-1.1-1.1-1.1z"></path><path stroke-linecap="round" stroke-linejoin="round" d="M4.5 7.4l1.7 1.7 3.3-4.2"></path></g></symbol><symbol viewBox="0 0 14 14" id="zd-svg-icon-14-checkmark-circle"><g fill="none" stroke="currentColor" stroke-width="1.5"><circle cx="7" cy="7" r="6.25"></circle><path stroke-linecap="round" stroke-linejoin="round" d="M4.5 7.4l1.7 1.7 3.3-4.2"></path></g></symbol><symbol viewBox="0 0 14 14" id="zd-svg-icon-14-checkmark-fill"><path fill="currentColor" d="M7 0C3.13 0 0 3.13 0 7s3.13 7 7 7 7-3.13 7-7-3.13-7-7-7zm3.09 5.363l-3.3 4.2a.75.75 0 0 1-.545.286H6.2a.748.748 0 0 1-.53-.22L3.97 7.93a.75.75 0 1 1 1.06-1.06l1.103 1.102L8.91 4.437a.75.75 0 0 1 1.18.926z"></path></symbol><symbol viewBox="0 0 14 14" id="zd-svg-icon-14-checkmark-lg"><path fill="none" stroke="currentColor" stroke-linecap="round" stroke-linejoin="round" stroke-width="2" d="M1 7.92L5.08 12 13 1.92"></path></symbol><symbol viewBox="0 0 14 14" id="zd-svg-icon-14-checkmark"><path fill="none" stroke="currentColor" stroke-linecap="round" stroke-linejoin="round" stroke-width="1.5" d="M4.5 7.19L6.76 9.5l2.744-5"></path></symbol><symbol viewBox="0 0 14 14" id="zd-svg-icon-14-chevron"><path fill="none" stroke="currentColor" stroke-linecap="round" stroke-linejoin="round" stroke-width="1.5" d="M4 6l3 3 3-3"></path></symbol><symbol viewBox="0 0 14 14" id="zd-svg-icon-14-circle"><circle cx="7" cy="7" r="6" fill="currentColor"></circle></symbol><symbol viewBox="0 0 14 14" id="zd-svg-icon-14-code-block"><path fill="none" stroke="currentColor" stroke-linecap="round" stroke-linejoin="round" d="M1.5 1.5h11v11h-11zm3 3.5l2 2-2 2m3 .5h2"></path></symbol><symbol viewBox="0 0 14 14" id="zd-svg-icon-14-code"><path fill="none" stroke="currentColor" stroke-linecap="round" stroke-linejoin="round" d="M9 2L5 12m5.5-7.5L13 7l-2.5 2.5m-7 0L1 7l2.5-2.5"></path></symbol><symbol viewBox="0 0 14 14" id="zd-svg-icon-14-credit-card"><path fill="currentColor" d="M13 2H1a1 1 0 0 0-1 1v8a1 1 0 0 0 1 1h12a1 1 0 0 0 1-1V3a1 1 0 0 0-1-1zm0 4.5a.5.5 0 0 1-.5.5h-11a.5.5 0 0 1-.5-.5v-1a.5.5 0 0 1 .5-.5h11a.5.5 0 0 1 .5.5z"></path></symbol><symbol viewBox="0 0 14 14" id="zd-svg-icon-14-customize"><g fill="currentColor"><path d="M6.9 2.9C2.5 2.9 0 7 0 7s2.6 4.1 7 4.1S14 7 14 7s-2.6-4.1-7.1-4.1zM7 10c-1.7 0-3-1.3-3-3s1.3-3 3-3 3 1.3 3 3-1.3 3-3 3z"></path><circle cx="7" cy="7" r="2"></circle></g></symbol><symbol viewBox="0 0 14 14" id="zd-svg-icon-14-dash"><path fill="none" stroke="currentColor" stroke-linecap="round" stroke-linejoin="round" stroke-width="1.5" d="M4.25 7h5.5"></path></symbol><symbol viewBox="0 0 14 14" id="zd-svg-icon-14-date"><path fill="currentColor" d="M13 2h-1V1a1 1 0 0 0-1-1h-1a1 1 0 0 0-1 1v1H5V1a1 1 0 0 0-1-1H3a1 1 0 0 0-1 1v1H1a1.003 1.003 0 0 0-1 1v10a1.003 1.003 0 0 0 1 1h12a1.003 1.003 0 0 0 1-1V3a1.003 1.003 0 0 0-1-1zm-1 9.5a.495.495 0 0 1-.5.5h-9a.495.495 0 0 1-.5-.5v-5a.495.495 0 0 1 .5-.5h9a.495.495 0 0 1 .5.5z"></path></symbol><symbol viewBox="0 0 14 14" id="zd-svg-icon-14-decimal"><path fill="currentColor" d="M9 13c-3.244 0-5-2.476-5-6 0-3.547 1.77-6 5-6 3.24 0 5 2.442 5 6 0 3.534-1.746 6-5 6zm0-2c1.865 0 3-1.383 3-4 0-2.648-1.146-4-3-4-1.843 0-3 1.36-3 4 0 2.61 1.146 4 3 4zm-7.5-1A1.5 1.5 0 1 0 3 11.5 1.5 1.5 0 0 0 1.5 10z"></path></symbol><symbol viewBox="0 0 14 14" id="zd-svg-icon-14-dropdown"><path fill="currentColor" d="M13 0H1a1 1 0 0 0-1 1v12a1 1 0 0 0 1 1h12a1 1 0 0 0 1-1V1a1 1 0 0 0-1-1zm-2.1 4.8L7.4 9.467a.5.5 0 0 1-.8 0L3.1 4.8a.5.5 0 0 1 .4-.8h7a.5.5 0 0 1 .4.8z"></path></symbol><symbol viewBox="0 0 14 14" id="zd-svg-icon-14-edit"><path fill="currentColor" d="M3.4 12.4L1 13l.6-2.4L9 3.2 10.8 5zM11.153.99l1.838 1.838-1.48 1.484-1.84-1.838z"></path></symbol><symbol viewBox="0 0 14 14" id="zd-svg-icon-14-email"><path fill="currentColor" d="M12.2 3H1.8L7 8.3zM7.4 9.3c-.1.1-.3.2-.4.2-.1 0-.2 0-.3-.1L1 3.6v7.5c0 .5.4.9.8.9h10.3c.5 0 .8-.4.8-.8V3.6L7.4 9.3z"></path></symbol><symbol viewBox="0 0 14 14" id="zd-svg-icon-14-eraser"><path fill="currentColor" fill-rule="evenodd" d="M5.1 5.3l3.5 3.5-2.8 2.8c-.4.4-1 .4-1.4 0l-2.1-2c-.4-.4-.4-1 0-1.4l2.8-2.9zm4.2-2.8l2.1 2.1c.8.8.8 2.1 0 2.8l-5 5c-.8.8-2 .8-2.8 0l-2.1-2.1c-.8-.8-.8-2.1 0-2.8l5-5c.8-.8 2-.8 2.8 0z"></path><path stroke="currentColor" stroke-linecap="round" d="M5 12.5h7.5"></path></symbol><symbol viewBox="0 0 14 14" id="zd-svg-icon-14-error-fill"><path fill="currentColor" d="M7 0C3.13 0 0 3.13 0 7s3.13 7 7 7 7-3.13 7-7-3.13-7-7-7zm-.75 3.75c0-.41.34-.75.75-.75s.75.34.75.75v2.5c0 .41-.34.75-.75.75s-.75-.34-.75-.75v-2.5zM7 11c-.55 0-1-.45-1-1s.45-1 1-1 1 .45 1 1-.45 1-1 1z"></path></symbol><symbol viewBox="0 0 14 14" id="zd-svg-icon-14-error"><g stroke="currentColor" stroke-width="1.5"><circle cx="7" cy="7" r="6.25" fill="none"></circle><path stroke-linecap="round" d="M7 3.75v2.5"></path></g><circle cx="7" cy="10" r="1" fill="currentColor"></circle></symbol><symbol viewBox="0 0 14 14" id="zd-svg-icon-14-file"><path fill="none" stroke="currentColor" stroke-linejoin="round" d="M2.5 1.5H8L11.5 5v7.5h-9v-11zm9.5 4H7.5V1"></path></symbol><symbol viewBox="0 0 14 14" id="zd-svg-icon-14-first"><path fill="none" stroke="currentColor" stroke-linecap="round" stroke-linejoin="round" stroke-width="2" d="M11 11L7 7l4-4M3.037 3v8"></path></symbol><symbol viewBox="0 0 14 14" id="zd-svg-icon-14-fullscreen-enter"><path fill="none" stroke="currentColor" stroke-width="2" d="M2 5V2h3M2 9v3h3m4 0h3V9m0-4V2H9"></path></symbol><symbol viewBox="0 0 14 14" id="zd-svg-icon-14-fullscreen-exit"><path fill="none" stroke="currentColor" stroke-width="2" d="M10 13v-3h3m-3-9v3h3M1 4h3V1m0 12v-3H1"></path></symbol><symbol viewBox="0 0 14 14" id="zd-svg-icon-14-glasses"><path fill="none" stroke="currentColor" d="M5.5 7A2.5 2.5 0 1 1 3 4.5 2.5 2.5 0 0 1 5.5 7zM11 4.5A2.5 2.5 0 1 0 13.5 7 2.5 2.5 0 0 0 11 4.5zM8.5 7a1.5 1.5 0 0 0-3 0"></path></symbol><symbol viewBox="0 0 14 14" id="zd-svg-icon-14-grip"><g fill="currentColor"><rect width="2" height="2" x="4" rx=".5"></rect><rect width="2" height="2" x="8" rx=".5"></rect><rect width="2" height="2" x="4" y="4" rx=".5"></rect><rect width="2" height="2" x="8" y="4" rx=".5"></rect><rect width="2" height="2" x="8" y="8" rx=".5"></rect><rect width="2" height="2" x="8" y="12" rx=".5"></rect><rect width="2" height="2" x="4" y="12" rx=".5"></rect><rect width="2" height="2" x="4" y="8" rx=".5"></rect></g></symbol><symbol viewBox="0 0 14 14" id="zd-svg-icon-14-group"><g fill="currentColor"><circle cx="9" cy="5.6" r="2.3"></circle><path d="M5.9 6.5c-.1-.3-.2-.6-.2-.9 0-1 .5-1.9 1.2-2.5-.3-.6-1-1-1.7-1-1.2 0-2.3 1-2.3 2.3s1 2.3 2.3 2.3c.3 0 .6-.1.7-.2zM9 8.8c-1.9 0-3.5 1.4-3.5 3.2h7c0-1.7-1.6-3.2-3.5-3.2zm-1.8-.5c-.4-.3-.7-.6-.9-.9-.3-.1-.7-.2-1.1-.2-2 0-3.7 1.5-3.7 3.4h3.4c.4-1.1 1.2-1.9 2.3-2.3z"></path></g></symbol><symbol viewBox="0 0 14 14" id="zd-svg-icon-14-heading"><path fill="currentColor" d="M3 2h1.3v4.3h5.3V2H11v10H9.6V7.4H4.4V12H3V2z"></path></symbol><symbol viewBox="0 0 14 14" id="zd-svg-icon-14-help"><path fill="currentColor" d="M6.02 9.48v-.9c0-.24.01-.45.04-.61a1.479 1.479 0 0 1 .42-.86l.42-.45 1.26-1.28c.28-.28.41-.63.41-1.07 0-.43-.14-.77-.42-1.04-.27-.27-.63-.4-1.05-.4-.46 0-.84.16-1.13.47-.3.31-.47.69-.51 1.14l-2.1-.16c.07-.52.2-.99.41-1.4.21-.42.48-.77.81-1.05.33-.28.72-.5 1.16-.65.43-.15.92-.22 1.44-.22.49 0 .95.07 1.37.21.42.14.79.35 1.1.61.31.27.55.6.73 1 .17.4.26.86.26 1.37 0 .36-.05.68-.15.95-.1.27-.23.52-.39.75-.17.24-.35.46-.57.67-.21.21-.44.42-.68.65-.15.15-.28.27-.39.38-.11.11-.2.22-.27.34-.07.11-.12.24-.16.39-.03.15-.05.33-.05.53v.62H6.02zm-.33 2.27c0-.35.13-.65.39-.9.25-.25.56-.37.92-.37.35 0 .66.12.92.36s.39.54.39.89-.13.65-.39.9c-.25.24-.56.37-.92.37-.17 0-.34-.03-.5-.1-.16-.07-.3-.15-.42-.26-.12-.11-.22-.24-.29-.39-.07-.16-.1-.32-.1-.5z"></path></symbol><symbol viewBox="0 0 14 14" id="zd-svg-icon-14-home"><path fill="currentColor" d="M12.83 6.18L7.3 1.57a.467.467 0 0 0-.59 0L1.17 6.18c-.2.16-.22.45-.06.65s.45.22.65.06l.63-.52v5.53c0 .6.49 1.09 1.1 1.09h7.04c.6 0 1.1-.49 1.1-1.09V6.37l.63.52c.07.07.17.11.28.11.13 0 .26-.06.35-.17.17-.19.14-.48-.06-.65z"></path></symbol><symbol viewBox="0 0 14 14" id="zd-svg-icon-14-image"><path fill="none" stroke="currentColor" stroke-linejoin="round" d="M1.5 1.5h11v11h-11z"></path><path fill="currentColor" d="M11 11H3v-1l2-2 2 1 2.4-2.7L11 8v3zM4 6c-.5 0-1-.4-1-1s.5-1 1-1 1 .4 1 1-.4 1-1 1z"></path></symbol><symbol viewBox="0 0 14 14" id="zd-svg-icon-14-incomplete"><path fill="currentColor" d="M7 13c-.47 0-.93-.05-1.38-.16a.49.49 0 0 1-.37-.6.49.49 0 0 1 .6-.37c.58.14 1.2.17 1.78.09.28-.04.52.16.56.43a.51.51 0 0 1-.43.56c-.25.03-.51.05-.76.05zm3.39-1.17c-.15 0-.29-.07-.39-.19a.504.504 0 0 1 .08-.7c.47-.37.87-.82 1.19-1.33a.49.49 0 0 1 .69-.16c.24.14.31.45.16.69a6.38 6.38 0 0 1-1.42 1.6c-.1.06-.21.09-.31.09zm-7.22-.38c-.13 0-.25-.05-.35-.14-.52-.5-.94-1.09-1.25-1.74-.11-.25-.01-.55.24-.67s.55-.01.67.24c.26.54.61 1.03 1.04 1.45.2.19.2.51.01.71-.1.1-.23.15-.36.15zm9.33-3.92c-.28 0-.5-.19-.5-.47V7c0-.6-.11-1.19-.32-1.75-.1-.26.04-.55.29-.64.26-.1.55.03.64.29.26.67.39 1.38.39 2.1 0 .28-.22.53-.5.53zM1.52 6.98h-.05a.502.502 0 0 1-.44-.55c.07-.72.26-1.41.58-2.06a.496.496 0 1 1 .89.44c-.26.54-.42 1.11-.48 1.71-.02.26-.24.46-.5.46zm8.92-3.77a.51.51 0 0 1-.31-.11c-.47-.38-1-.66-1.57-.85a.5.5 0 0 1-.32-.64c.08-.26.37-.4.63-.31.68.23 1.32.57 1.88 1.02.22.17.25.49.08.7-.1.12-.25.19-.39.19zM3.99 2.9c-.16 0-.32-.08-.42-.23a.498.498 0 0 1 .14-.69c.61-.4 1.27-.68 1.97-.83a.503.503 0 0 1 .22.98c-.58.12-1.13.35-1.64.69a.53.53 0 0 1-.27.08z"></path></symbol><symbol viewBox="0 0 14 14" id="zd-svg-icon-14-indent"><path fill="currentColor" d="M2 4l3.5 2.5L2 9z"></path><path stroke="currentColor" stroke-linecap="round" d="M1.5 1.5h11m-11 10h11m-5-4h5m-5 2h5m-5-4h5m-5-2h5"></path></symbol><symbol viewBox="0 0 14 14" id="zd-svg-icon-14-info"><path fill="currentColor" d="M7 14c3.87 0 7-3.13 7-7s-3.13-7-7-7-7 3.13-7 7 3.13 7 7 7zm.75-3.75c0 .41-.34.75-.75.75s-.75-.34-.75-.75v-2.5c0-.41.34-.75.75-.75s.75.34.75.75v2.5zM7 3c.55 0 1 .45 1 1s-.45 1-1 1-1-.45-1-1 .45-1 1-1z"></path></symbol><symbol viewBox="0 0 14 14" id="zd-svg-icon-14-italics"><path fill="currentColor" d="M7 4h1.6l-2.5 8H4.5L7 4zm.9-3h1.6L9 2.7H7.4L7.9 1z"></path></symbol><symbol viewBox="0 0 14 14" id="zd-svg-icon-14-keypad"><g fill="currentColor"><circle cx="4" cy="4" r="1"></circle><circle cx="7" cy="4" r="1"></circle><circle cx="10" cy="4" r="1"></circle><circle cx="4" cy="7" r="1"></circle><circle cx="7" cy="7" r="1"></circle><circle cx="10" cy="7" r="1"></circle><circle cx="4" cy="10" r="1"></circle><circle cx="7" cy="10" r="1"></circle><circle cx="10" cy="10" r="1"></circle></g></symbol><symbol viewBox="0 0 14 14" id="zd-svg-icon-14-last"><path fill="none" stroke="currentColor" stroke-linecap="round" stroke-linejoin="round" stroke-width="2" d="M3 11l4-4-4-4m8 0v8"></path></symbol><symbol viewBox="0 0 14 14" id="zd-svg-icon-14-link-external"><path fill="none" stroke="currentColor" stroke-linecap="round" stroke-linejoin="round" d="M8 2h4v4m0-4L6 8M4 2H2v10h10v-2"></path></symbol><symbol viewBox="0 0 14 14" id="zd-svg-icon-14-link"><path fill="currentColor" d="M12.4 11.3l-1.1 1.1c-.4.4-.9.6-1.5.6s-1.1-.2-1.5-.6l-1.5-1.5c-.4-.4-.6-.9-.6-1.5s.2-1.1.6-1.5l-.6-.7c-.4.4-1 .6-1.6.6-.6 0-1.1-.2-1.5-.6L1.6 5.7c-.4-.4-.6-1-.6-1.5 0-.6.2-1.1.6-1.5l1.1-1.1c.4-.4.9-.6 1.5-.6s1.1.2 1.5.6l1.5 1.5c.4.4.6.9.6 1.5s-.2 1.1-.6 1.5l.6.6c.4-.4.9-.6 1.5-.6s1.1.2 1.5.6l1.5 1.5c.5.5.7 1 .7 1.6 0 .6-.2 1.1-.6 1.5zM6.2 4.1L4.7 2.6c-.1-.1-.3-.2-.5-.2s-.4.1-.5.2L2.6 3.7c-.1.1-.2.3-.2.5s.1.4.2.5l1.5 1.5c.1.1.3.2.5.2s.4-.1.5-.2c-.2-.2-.4-.5-.4-.8s.3-.7.7-.7c.4 0 .6.3.8.5.1-.2.2-.3.2-.6 0-.1-.1-.3-.2-.5zm5.2 5.2L9.8 7.8c-.1-.1-.3-.2-.5-.2s-.3.1-.5.2c.2.3.5.5.5.8s-.3.8-.7.8c-.4 0-.6-.3-.8-.5-.2.1-.2.2-.2.5 0 .2.1.4.2.5l1.5 1.5c.1.1.3.2.5.2s.4-.1.5-.2l1.1-1.1c.1-.1.2-.3.2-.5s-.1-.3-.2-.5z"></path></symbol><symbol viewBox="0 0 14 14" id="zd-svg-icon-14-list-ordered"><path stroke="currentColor" stroke-linecap="round" d="M5.5 11.5h7m-7-5h7m-7-5h7"></path><path fill="currentColor" d="M2.5 4c-.2 0-.5-.2-.5-.5V1.3l-.3.1c-.2.1-.5 0-.7-.2s0-.5.2-.7l1-.5c.3 0 .5 0 .6.1.1.1.2.2.2.4v3c0 .3-.2.5-.5.5zm.3 10H1.5c-.3 0-.5-.2-.5-.5s.2-.5.5-.5h1.3c.1 0 .2-.1.2-.2s-.1-.2-.2-.2c-.3 0-.5-.2-.5-.5s.2-.5.5-.5c.1 0 .2-.1.2-.2s-.1-.4-.2-.4H1.5c-.2 0-.5-.2-.5-.5s.3-.5.5-.5h1.2c.8 0 1.3.6 1.3 1.2 0 .3-.1.5-.3.8.2.2.3.5.3.8 0 .6-.5 1.2-1.2 1.2zm.7-5h-2c-.2 0-.4-.1-.4-.3-.1-.2-.1-.4.1-.6C2.1 7.3 3 6.3 3 6c-.1-.2-.7-.2-1.3 0-.3.1-.6-.1-.7-.4 0-.2.1-.5.4-.6.3-.1 1.6-.4 2.2.2.3.2.4.5.4.8 0 .5-.6 1.3-1.3 2h.8c.3 0 .5.2.5.5s-.2.5-.5.5z"></path></symbol><symbol viewBox="0 0 14 14" id="zd-svg-icon-14-list-unordered"><g fill="currentColor"><circle cx="2.5" cy="1.5" r="1.5"></circle><circle cx="2.5" cy="6.5" r="1.5"></circle><circle cx="2.5" cy="11.5" r="1.5"></circle></g><path stroke="currentColor" stroke-linecap="round" d="M5.5 11.5h7m-7-5h7m-7-5h7"></path></symbol><symbol viewBox="0 0 14 14" id="zd-svg-icon-14-lock"><path fill="none" stroke="currentColor" stroke-width="1.5" d="M10 7.5v-3c0-1.7-1.3-3-3-3s-3 1.3-3 3v3"></path><path fill="currentColor" d="M11.4 5.7H2.6c-.3 0-.6.3-.6.6v6.1c0 .3.3.6.6.6h8.7c.3 0 .6-.3.6-.6V6.3c.1-.3-.2-.6-.5-.6zM8 10c0 .6-.4 1-1 1s-1-.4-1-1V9c0-.6.4-1 1-1s1 .4 1 1v1z"></path></symbol><symbol viewBox="0 0 14 14" id="zd-svg-icon-14-ltr"><path fill="currentColor" d="M9.5 0H5C3.3 0 2 1.3 2 3s1.3 3 3 3v2.5c0 .3.2.5.5.5s.5-.2.5-.5V1h1v7.5c0 .3.2.5.5.5s.5-.2.5-.5V1h1.5c.3 0 .5-.2.5-.5S9.8 0 9.5 0zM13 11.3L9.4 9.2c-.2-.1-.4 0-.4.2V11H2.5c-.3 0-.5.2-.5.5s.2.5.5.5H9v1.6c0 .2.2.3.4.2l3.6-2.1c.1-.1.1-.3 0-.4z"></path></symbol><symbol viewBox="0 0 14 14" id="zd-svg-icon-14-macro"><path fill="currentColor" d="M10.2 4.48l-3.89 8.34c-.06.11-.17.18-.3.18-.03 0-.06-.01-.1-.01a.306.306 0 0 1-.22-.35l1.42-5.83-2.93.72c-.03.01-.06.01-.09.01a.33.33 0 0 1-.22-.08c-.09-.07-.11-.18-.09-.28l1.45-5.95c.03-.14.16-.23.31-.23h2.37c.18 0 .32.14.32.3 0 .04-.01.09-.04.13L6.96 4.77l2.86-.71c.03-.01.06-.01.09-.01.09 0 .18.04.25.11.07.09.09.21.04.32z"></path></symbol><symbol viewBox="0 0 14 14" id="zd-svg-icon-14-menu-tray"><g fill="currentColor"><rect width="6" height="6" rx="1"></rect><rect width="6" height="6" x="8" rx="1"></rect><rect width="6" height="6" y="8" rx="1"></rect><rect width="6" height="6" x="8" y="8" rx="1"></rect></g></symbol><symbol viewBox="0 0 14 14" id="zd-svg-icon-14-menu"><path stroke="currentColor" stroke-linecap="round" stroke-width="1.5" d="M2 1.75h10m-10 5h10m-10 5h10"></path></symbol><symbol viewBox="0 0 14 14" id="zd-svg-icon-14-multiline"><path fill="none" stroke="currentColor" stroke-linecap="round" stroke-width="2" d="M1 2h12M1 7h12M1 12h6"></path></symbol><symbol viewBox="0 0 14 14" id="zd-svg-icon-14-next"><path fill="none" stroke="currentColor" stroke-linecap="round" stroke-linejoin="round" stroke-width="2" d="M5 11l4-4-4-4"></path></symbol><symbol viewBox="0 0 14 14" id="zd-svg-icon-14-numeric"><path fill="none" stroke="currentColor" stroke-linecap="round" stroke-width="2" d="M3 13L6 1m2 12l3-12M2 4h11M1 9h11"></path></symbol><symbol viewBox="0 0 14 14" id="zd-svg-icon-14-organization"><path fill="currentColor" d="M11.1 1H2.9c-.5 0-.9.4-.9.9v10.2c0 .5.4.9.9.9H6V9h2v4h3c.5 0 1-.4 1-1V1.9c0-.5-.4-.9-.9-.9zM9 7H5V6h4v1zm0-3H5V3h4v1z"></path></symbol><symbol viewBox="0 0 14 14" id="zd-svg-icon-14-outdent"><path fill="currentColor" d="M5 9L1.5 6.5 5 4z"></path><path stroke="currentColor" stroke-linecap="round" d="M1.5 1.5h11m-11 10h11m-5-4h5m-5 2h5m-5-4h5m-5-2h5"></path></symbol><symbol viewBox="0 0 14 14" id="zd-svg-icon-14-person"><g fill="currentColor"><circle cx="7" cy="4.6" r="3"></circle><path d="M7 8.2c-2.5 0-4.6 1.8-5 4.1h10c-.4-2.3-2.5-4.1-5-4.1z"></path></g></symbol><symbol viewBox="0 0 14 14" id="zd-svg-icon-14-play"><circle cx="7" cy="7" r="5" fill="none" stroke="currentColor"></circle><path fill="currentColor" d="M8.8 7L6.1 8.8V5.2"></path></symbol><symbol viewBox="0 0 14 14" id="zd-svg-icon-14-plus-sign"><path fill="currentColor" d="M7 1C3.7 1 1 3.7 1 7s2.7 6 6 6 6-2.7 6-6-2.7-6-6-6zm2.5 6.5h-2v2c0 .3-.2.5-.5.5s-.5-.2-.5-.5v-2h-2c-.3 0-.5-.2-.5-.5s.2-.5.5-.5h2v-2c0-.3.2-.5.5-.5s.5.2.5.5v2h2c.3 0 .5.2.5.5s-.2.5-.5.5z"></path></symbol><symbol viewBox="0 0 14 14" id="zd-svg-icon-14-plus"><path stroke="currentColor" stroke-linecap="round" d="M7 11V3M3 7h8"></path></symbol><symbol viewBox="0 0 14 14" id="zd-svg-icon-14-previous"><path fill="none" stroke="currentColor" stroke-linecap="round" stroke-linejoin="round" stroke-width="2" d="M9 11L5 7l4-4"></path></symbol><symbol viewBox="0 0 14 14" id="zd-svg-icon-14-quote"><path fill="currentColor" d="M12.5 4c0-.5-.4-1-1-1h-3c-.5 0-1 .4-1 1v3.1c0 .5.4 1 1 1H11v1.8c0 .2-.2.4-.4.4h-.8c-.4-.1-.8.3-.8.7s.3.8.8.8h.8c1 0 1.9-.9 1.9-1.9V4zm-6 0c0-.5-.4-1-1-1h-3c-.5 0-1 .4-1 1v3.1c0 .5.4 1 1 1H5v1.8c0 .2-.2.4-.4.4h-.8c-.4-.1-.8.3-.8.7s.3.8.8.8h.8c1.1 0 1.9-.9 1.9-1.9V4z"></path></symbol><symbol viewBox="0 0 14 14" id="zd-svg-icon-14-refresh"><path fill="currentColor" d="M11.556 1.072L8.093 4.476c-.178.175-.09.524.177.524h3.286A.44.44 0 0 0 12 4.564V1.247c0-.175-.266-.35-.444-.175z"></path><path fill="none" stroke="currentColor" stroke-linecap="round" stroke-width="1.5" d="M10.315 3.283A4.961 4.961 0 0 0 7 2a5 5 0 1 0 3.763 8.292"></path></symbol><symbol viewBox="0 0 14 14" id="zd-svg-icon-14-regex"><path fill="currentColor" d="M6.196 14a.864.864 0 0 1-.16-.016.824.824 0 0 1-.647-.97l.889-4.443-3.679 2.758a.85.85 0 0 1-.492.166.824.824 0 0 1-.687-.368L.668 10a.783.783 0 0 1-.077-.15.824.824 0 0 1 .457-1.072L5.495 7 1.048 5.22a.809.809 0 0 1-.152-.079A.825.825 0 0 1 .668 4l.752-1.128a.841.841 0 0 1 .687-.367.816.816 0 0 1 .492.165l3.679 2.76L5.389.984a.864.864 0 0 1-.016-.16A.824.824 0 0 1 6.196 0h1.607a.807.807 0 0 1 .16.015.823.823 0 0 1 .647.97L7.721 5.43 11.4 2.67a.856.856 0 0 1 .493-.165.824.824 0 0 1 .687.367L13.331 4a.704.704 0 0 1 .078.149.824.824 0 0 1-.457 1.071L8.505 7l4.447 1.778a.78.78 0 0 1 .149.08.823.823 0 0 1 .23 1.142l-.751 1.127a.838.838 0 0 1-.687.367.812.812 0 0 1-.493-.165L7.72 8.57l.889 4.444a.769.769 0 0 1 .016.162.824.824 0 0 1-.823.823z"></path></symbol><symbol viewBox="0 0 14 14" id="zd-svg-icon-14-remove"><path stroke="currentColor" stroke-linecap="round" d="M4 10l6-6M4 4l6 6"></path></symbol><symbol viewBox="0 0 14 14" id="zd-svg-icon-14-role"><path fill="currentColor" d="M5.7 12.8c.4.1.9.2 1.3.2 2.5 0 4.5-2 4.5-4.5V7l-5.8 5.8zm-1.2-.6l7-7V1.4c-.3.9-1.3 1.1-2.2 1.1-1 0-2-.6-2.3-1.5-.3.9-1.3 1.5-2.3 1.5-1 0-1.9-.2-2.2-1.1v7.1c0 1.5.8 2.9 2 3.7z"></path></symbol><symbol viewBox="0 0 14 14" id="zd-svg-icon-14-rtl"><path fill="currentColor" d="M10.5 0H6C4.3 0 3 1.3 3 3s1.3 3 3 3v2.5c0 .3.2.5.5.5s.5-.2.5-.5V1h1v7.5c0 .3.2.5.5.5s.5-.2.5-.5V1h1.5c.3 0 .5-.2.5-.5s-.2-.5-.5-.5zm1 11H5V9.4c0-.2-.2-.3-.4-.2L1 11.3c-.2.1-.2.3 0 .4l3.6 2.1c.2.1.4 0 .4-.2V12h6.5c.3 0 .5-.2.5-.5s-.2-.5-.5-.5z"></path></symbol><symbol viewBox="0 0 14 14" id="zd-svg-icon-14-search"><g stroke="currentColor" stroke-linecap="round" stroke-width="1.5"><circle cx="6" cy="6" r="4" fill="none"></circle><path d="M9 9l3 3"></path></g></symbol><symbol viewBox="0 0 14 14" id="zd-svg-icon-14-select-multiple"><path fill="none" stroke="currentColor" stroke-linecap="round" stroke-linejoin="round" stroke-width="2" d="M4 13h9V4"></path><path fill="currentColor" d="M10 0H1a1.003 1.003 0 0 0-1 1v9a1.003 1.003 0 0 0 1 1h9a1.003 1.003 0 0 0 1-1V1a1.003 1.003 0 0 0-1-1zM8.59 3.86l-3.3 4.2a.734.734 0 0 1-.54.29H4.7a.75.75 0 0 1-.53-.22l-1.7-1.7a.75.75 0 1 1 1.06-1.06l1.1 1.1 2.78-3.53a.748.748 0 0 1 1.18.92z"></path></symbol><symbol viewBox="0 0 14 14" id="zd-svg-icon-14-settings"><path fill="currentColor" d="M11.07 9.29c0-.82.66-1.48 1.48-1.48.13 0 .26.02.39.05a6.11 6.11 0 0 0 0-1.72 1.477 1.477 0 0 1-1.89-1.42c0-.56.31-1.05.77-1.3-.35-.46-.76-.88-1.22-1.22-.26.44-.73.74-1.28.74-.82 0-1.48-.66-1.48-1.48 0-.14.02-.27.05-.39C7.59 1.02 7.3 1 7 1c-.3 0-.58.02-.87.06.03.13.05.26.05.39 0 .82-.66 1.48-1.48 1.48-.55 0-1.03-.3-1.29-.75-.46.36-.88.77-1.22 1.24.46.25.76.74.76 1.3a1.477 1.477 0 0 1-1.89 1.42 6.11 6.11 0 0 0 0 1.72 1.477 1.477 0 0 1 1.86 1.43c0 .55-.3 1.03-.74 1.28.35.47.77.89 1.24 1.24.26-.44.73-.74 1.28-.74a1.477 1.477 0 0 1 1.43 1.86c.29.05.58.07.87.07.3 0 .59-.02.88-.06a1.477 1.477 0 0 1 1.43-1.86c.55 0 1.02.3 1.28.74.47-.35.88-.76 1.23-1.23-.45-.27-.75-.75-.75-1.3zM7 10c-1.66 0-3-1.34-3-3s1.34-3 3-3 3 1.34 3 3-1.34 3-3 3z"></path></symbol><symbol viewBox="0 0 14 14" id="zd-svg-icon-14-sort"><path fill="currentColor" d="M3.65 5.188l2.96-3.7a.5.5 0 0 1 .78 0l2.96 3.7A.5.5 0 0 1 9.96 6H4.04a.5.5 0 0 1-.39-.812z"></path><path d="M3.65 8.812l2.96 3.7a.5.5 0 0 0 .78 0l2.96-3.7A.5.5 0 0 0 9.96 8H4.04a.5.5 0 0 0-.39.812z"></path></symbol><symbol viewBox="0 0 14 14" id="zd-svg-icon-14-support"><path fill="currentColor" d="M5.7 1.1c-1 .2-1.8.7-2.6 1.3l1.8 1.8c.4-.3.8-.5 1.3-.6 1-.2 2.1 0 2.9.7L11 2.5C9.5 1.2 7.6.7 5.7 1.1zM1.1 8.3c.2.9.6 1.8 1.3 2.5L4.2 9c-.3-.4-.5-.8-.6-1.2-.2-1 0-2.1.7-2.9L2.4 3.1C1.2 4.5.7 6.4 1.1 8.3zm11.8-2.6c-.2-.9-.6-1.8-1.3-2.5L9.8 5c.3.4.5.8.6 1.3.2 1 0 2-.6 2.8l1.8 1.8c1.2-1.5 1.7-3.4 1.3-5.2zm-4.6 7.2c1-.2 1.9-.7 2.6-1.3L9.2 9.7c-.4.3-.9.6-1.4.7-.2.1-.5.1-.8.1-.8 0-1.5-.3-2.1-.8l-1.8 1.8c1.4 1.3 3.3 1.8 5.2 1.4z"></path></symbol><symbol viewBox="0 0 14 14" id="zd-svg-icon-14-survey"><path fill="currentColor" d="M10.5 3.4h-.6c0-.3-.2-.5-.5-.5h-.5C8.9 1.9 8.1 1 7 1c-1.1 0-1.9.9-1.9 1.9h-.5c-.3 0-.5.2-.5.5h-.6c-.5 0-.9.4-.9.9v7.9c0 .5.4.9.9.9h6.9c.5 0 .9-.4.9-.9V4.3c0-.5-.4-.9-.8-.9zm-5.4.5h.5c.2 0 .4-.2.4-.5v-.5c0-.5.4-1 1-1s1 .4 1 1v.5c0 .3.2.5.5.5H9v1.9H5.1V3.9z"></path></symbol><symbol viewBox="0 0 14 14" id="zd-svg-icon-14-table"><path fill="currentColor" d="M12.5 1H.5c-.3 0-.5.2-.5.5v11c0 .3.2.5.5.5h12c.3 0 .5-.2.5-.5v-11c0-.3-.2-.5-.5-.5zM4 12H1v-2h3v2zm0-3H1V7h3v2zm0-3H1V4h3v2zm4 6H5v-2h3v2zm0-3H5V7h3v2zm0-3H5V4h3v2zm4 6H9v-2h3v2zm0-3H9V7h3v2zm0-3H9V4h3v2z"></path></symbol><symbol viewBox="0 0 14 14" id="zd-svg-icon-14-text-color"><path fill="currentColor" d="M6.4 1h1.4l3.3 9H9.8l-.9-2.7H5.4l-1 2.7H3.2l3.2-9zm2 5.3L7 2.3l-1.4 4h2.8zm4.1 4.7h-11c-.3 0-.5.2-.5.5v1c0 .3.2.5.5.5h11c.3 0 .5-.2.5-.5v-1c0-.3-.2-.5-.5-.5z"></path></symbol><symbol viewBox="0 0 14 14" id="zd-svg-icon-14-text"><path fill="none" stroke="currentColor" stroke-linecap="round" stroke-width="2" d="M2 1h10M7 13V1"></path></symbol><symbol viewBox="0 0 14 14" id="zd-svg-icon-14-times-fill"><path fill="currentColor" d="M7 0C3.13 0 0 3.13 0 7s3.13 7 7 7 7-3.13 7-7-3.13-7-7-7zm2.776 8.716a.75.75 0 1 1-1.06 1.06L7 8.06 5.284 9.776a.748.748 0 0 1-1.06 0 .75.75 0 0 1 0-1.06L5.938 7 4.223 5.284a.75.75 0 1 1 1.06-1.06L7 5.938l1.716-1.716a.75.75 0 1 1 1.06 1.06L8.06 7l1.716 1.716z"></path></symbol><symbol viewBox="0 0 14 14" id="zd-svg-icon-14-times"><g stroke="currentColor" stroke-width="1.5"><circle cx="7" cy="7" r="6.25" fill="none"></circle><path stroke-linecap="round" d="M4.754 4.754l4.492 4.492m0-4.492L4.754 9.246"></path></g></symbol><symbol viewBox="0 0 14 14" id="zd-svg-icon-14-trash"><path fill="none" stroke="currentColor" stroke-linecap="round" stroke-linejoin="round" d="M4.5 3V1.5h5V3M2 3.5h10"></path><path fill="currentColor" d="M10.1 13H3.9c-.5 0-.9-.4-.9-.9V3.9c0-.5.4-.9.9-.9h6.2c.5 0 .9.4.9.9v8.2c0 .5-.4.9-.9.9z"></path></symbol><symbol viewBox="0 0 14 14" id="zd-svg-icon-14-twitter-heart"><path fill="currentColor" d="M10.497.5C8.353.5 7.167 2.68 7 2.925 6.832 2.68 5.66.5 3.503.5 1.568.5 0 2.338 0 4.272c0 4.57 5.476 9.325 7 9.353 1.524-.028 7-4.784 7-9.353C14 2.338 12.432.5 10.497.5z"></path></symbol><symbol viewBox="0 0 14 14" id="zd-svg-icon-14-underline"><path fill="currentColor" d="M11 7.5c0 2.5-1.4 3.8-3.9 3.8-2.6 0-4.1-1.2-4.1-3.8V1.2h1.3v6.3c0 1.8 1 2.7 2.7 2.7 1.7 0 2.6-.9 2.6-2.7V1.2H11v6.3zm-9 5.3v-.7h10v.7H2z"></path></symbol><symbol viewBox="0 0 14 14" id="zd-svg-icon-14-voicemail"><g fill="none" stroke="currentColor" stroke-width="1.5"><circle cx="3.7" cy="6.7" r="2.2"></circle><circle cx="10.3" cy="6.7" r="2.2"></circle></g><path fill="currentColor" d="M7 10.2c-2 0-3.6-.3-4.7-.9-.4-.2-.5-.7-.3-1 .2-.4.7-.5 1-.3.9.5 2.2.7 4 .7 1.4 0 3-.1 4-.7.4-.2.8-.1 1 .2.2.4.1.8-.2 1-1.3.9-3.2 1-4.8 1z"></path></symbol><symbol viewBox="0 0 14 14" id="zd-svg-icon-14-warning-fill"><path fill="currentColor" d="M13.931 13.104L7.47.302c-.21-.403-.73-.403-.94 0L.069 13.104c-.2.403.06.896.47.896H13.46c.41 0 .67-.493.47-.896zM6.25 5.75c0-.41.34-.75.75-.75s.75.34.75.75v2.5c0 .41-.34.75-.75.75s-.75-.34-.75-.75v-2.5zM7 12.5c-.55 0-1-.45-1-1s.45-1 1-1 1 .45 1 1-.45 1-1 1z"></path></symbol><symbol viewBox="0 0 14 14" id="zd-svg-icon-14-warning"><path fill="none" stroke="currentColor" stroke-linecap="round" d="M12 12.5H2c-.4 0-.7-.4-.5-.8l5-9.9c.2-.4.8-.4 1 0l5 9.9c.1.4-.1.8-.5.8zM7 8.8V6.2"></path><circle cx="7" cy="10.5" r=".8" fill="currentColor"></circle></symbol><symbol viewBox="0 0 26 26" id="zd-svg-icon-26-app"><path fill="none" stroke="currentColor" stroke-linejoin="round" stroke-width="2" d="M4 8l9-5 9 5v9.7L13 23l-9-5.2zm9 5L4 8m9 5l9-5m-9 5v10"></path></symbol><symbol viewBox="0 0 26 26" id="zd-svg-icon-26-arrange-content"><path fill="currentColor" d="M7 14v-2a1 1 0 0 1 1-1h13a1 1 0 0 1 1 1v2a1 1 0 0 1-1 1H8a1 1 0 0 1-1-1m-3 6v-2.16a1 1 0 0 1 1-1h13a1 1 0 0 1 1 1V20a1 1 0 0 1-1 1H5a1 1 0 0 1-1-1M4 8.16V6a1 1 0 0 1 1-1h13a1 1 0 0 1 1 1v2.17a1 1 0 0 1-1 1H5a1 1 0 0 1-1-1"></path></symbol><symbol viewBox="0 0 26 26" id="zd-svg-icon-26-bar-chart"><path fill="currentColor" d="M20.037 21.001L17.963 21c-.532-.001-.963-.449-.963-1.003V6.002c0-.554.431-1.003.963-1.002l2.078.001c.53 0 .959.448.959 1v13.998c0 .553-.431 1.002-.963 1.002M8.043 21H5.957C5.428 21 5 20.554 5 20.003v-7.006c0-.551.428-.997.957-.997h2.086c.529 0 .957.446.957.997v7.006c0 .551-.428.997-.957.997m5.999 0h-2.084a.958.958 0 0 1-.958-.958V9.958c0-.529.43-.958.958-.958h2.084c.529 0 .958.43.958.958v10.084c0 .529-.43.958-.958.958"></path></symbol><symbol viewBox="0 0 26 26" id="zd-svg-icon-26-book"><path fill="none" stroke="currentColor" stroke-linejoin="round" stroke-width="2" d="M4 4.5v16.99A2.503 2.503 0 0 0 6.508 24H20c.552 0 1-.455 1-1V8c0-.552-.455-1-1-1H6.508A2.498 2.498 0 0 1 4 4.5C4 3.12 5.125 2 6.5 2H19c.552 0 1 .444 1 1v4M9 16h8m-8-4h8"></path></symbol><symbol viewBox="0 0 26 26" id="zd-svg-icon-26-call-in"><path fill="currentColor" d="M19.164 17.152c1.191 1.087 1.557 1.824 1.778 2.238a.5.5 0 0 1-.09.588c-1.078 1.09-1.784 1.87-2.813 1.992-2.3.29-5.724-1.535-9.092-4.917-3.381-3.367-5.207-6.791-4.917-9.09.122-1.03.905-1.737 1.997-2.816a.492.492 0 0 1 .58-.09c.412.221 1.151.585 2.24 1.78 1.112 1.224 1.466 2.144 1.537 2.668a.657.657 0 0 1-.205.517c-.411.41-1.352 1.265-1.48 1.704-.169.538.142 1.203.687 2.002.34.481.807 1.033 1.33 1.557.523.523 1.075.99 1.556 1.33.8.544 1.465.855 2.003.686.439-.128 1.294-1.068 1.705-1.478a.65.65 0 0 1 .516-.206c.524.07 1.444.425 2.668 1.535M14.897 5.287c.492 0 .897.407.897.9l.007 2.769 4.671-4.692a.891.891 0 0 1 1.266 0 .9.9 0 0 1 0 1.27l-4.664 4.671h2.72c.491 0 .896.407.896.901a.891.891 0 0 1-.89.894h-4.774A1.03 1.03 0 0 1 14 10.968l.007-4.787c0-.494.405-.901.89-.894"></path></symbol><symbol viewBox="0 0 26 26" id="zd-svg-icon-26-chat"><path fill="currentColor" d="M20.95 4H5.05C4.473 4 4 4.476 4 5.059v12.536c0 .583.473 1.06 1.05 1.06h5.178v3.08c0 .212.23.34.41.223l5.134-3.304h5.178c.577 0 1.05-.476 1.05-1.059V5.06C22 4.476 21.527 4 20.95 4zM8.918 14C8.416 14 8 13.563 8 13.011v-.022c0-.552.416-.989.918-.989h8.154c.512 0 .928.448.928 1s-.416 1-.928 1H8.918zm0-4C8.416 10 8 9.563 8 9.011V8.99c0-.553.416-.99.918-.99h8.154c.512 0 .928.448.928 1s-.416 1-.928 1H8.918z"></path></symbol><symbol viewBox="0 0 26 26" id="zd-svg-icon-26-checkbox"><path fill="currentColor" d="M17.8 10.59L12.39 16l-.53.53a.996.996 0 0 1-1.41 0l-.41-.41-1.83-1.82a.87.87 0 0 1 0-1.23l.02-.01c.33-.34.88-.34 1.22 0l1.7 1.7 5.41-5.41c.34-.33.89-.33 1.22 0l.02.02c.33.34.33.88 0 1.22M19.99 5H6c-.55 0-1 .45-1 1.01V20c0 .55.45 1 1 1h13.99c.56 0 1.01-.45 1.01-1V6.01C21 5.45 20.55 5 19.99 5"></path></symbol><symbol viewBox="0 0 26 26" id="zd-svg-icon-26-clipboard"><path fill="currentColor" d="M17 5.583v.846c0 .32-.204.571-.464.571H9.464C9.214 7 9 6.749 9 6.429V5.57c0-.307.213-.57.464-.57h1.16c.26 0 .464-.251.464-.571V3.57c0-.308.214-.571.464-.571h2.905c.25 0 .455.251.455.56v.869c0 .315.208.571.464.571h1.16c.26 0 .464.263.464.583m4 5.492v8.943a.99.99 0 0 1-.993.983H5.993A.99.99 0 0 1 5 20.017V5.491c0-.27.222-.491.496-.491h.993c.274 0 .496.22.496.491l-.02 3.037c0 .272.222.492.496.492H18.5c.274 0 .496-.22.496-.492l.02-3.007c0-.271.222-.492.496-.492h.993c.274 0 .496.22.496.492v5.553z"></path></symbol><symbol viewBox="0 0 26 26" id="zd-svg-icon-26-clock"><path fill="currentColor" d="M16.443 17.145a.856.856 0 0 1-1.218 0L12 13.92V8.86c0-.47.39-.859.869-.859h.02c.469 0 .858.39.858.859v4.332l2.716 2.726a.856.856 0 0 1 0 1.218l-.02.01zM4 13.005A8.992 8.992 0 0 0 13.005 22 8.99 8.99 0 0 0 22 13.005 8.992 8.992 0 0 0 13.005 4 8.994 8.994 0 0 0 4 13.005z"></path></symbol><symbol viewBox="0 0 26 26" id="zd-svg-icon-26-cloud-upload"><path fill="currentColor" d="M19.05 21h-5.2v-6.9l1.86 1.9c.331.34.877.34 1.208 0a.886.886 0 0 0 0-1.23l-3.208-3.295a.956.956 0 0 0-1.376 0l-3.216 3.294a.886.886 0 0 0 0 1.23c.331.34.876.34 1.207 0l1.821-1.88V21h-4.84C4.377 21 2 18.55 2 15.53c0-2.91 2.21-5.29 5.015-5.45.662-3.6 4.323-6.1 8.228-4.67 2.356.86 3.846 3.26 3.846 5.84h.166c2.784 0 4.995 2.45 4.722 5.37-.243 2.52-2.454 4.38-4.927 4.38z"></path></symbol><symbol viewBox="0 0 26 26" id="zd-svg-icon-26-credit-card"><path fill="currentColor" d="M22 6H4a1.003 1.003 0 0 0-1 1v12a1.003 1.003 0 0 0 1 1h18a1.003 1.003 0 0 0 1-1V7a1.003 1.003 0 0 0-1-1zm-1 6.5a.495.495 0 0 1-.5.5h-15a.495.495 0 0 1-.5-.5v-2a.495.495 0 0 1 .5-.5h15a.495.495 0 0 1 .5.5z"></path></symbol><symbol viewBox="0 0 26 26" id="zd-svg-icon-26-customer-lists-fill"><path fill="currentColor" d="M22.136 10h-5.282c-.472 0-.854-.443-.854-.989V8.99c0-.546.382-.989.854-.989h5.282c.476 0 .864.45.864 1s-.388 1-.864 1zm0 4h-5.282c-.472 0-.854-.443-.854-.989v-.022c0-.546.382-.989.854-.989h5.282c.476 0 .864.45.864 1s-.388 1-.864 1zm.022 4h-3.327c-.46 0-.831-.443-.831-.989v-.022c0-.546.372-.989.831-.989h3.327c.463 0 .842.45.842 1s-.379 1-.842 1zM10 13a4 4 0 1 1 0-8 4 4 0 0 1 0 8zm-6.03 8.073c-.583 0-1.048-.518-.96-1.093A7.072 7.072 0 0 1 10 14a7.072 7.072 0 0 1 6.989 5.98c.09.575-.376 1.093-.958 1.093H3.97z"></path></symbol><symbol viewBox="0 0 26 26" id="zd-svg-icon-26-customize"><g fill="currentColor"><path d="M13 17.36A4.36 4.36 0 1 1 17.36 13 4.36 4.36 0 0 1 13 17.36m9.63-5C21 10.55 17.28 6 13 6s-8 4.54-9.63 6.3a1 1 0 0 0 0 1.37C5 15.45 8.72 20 13 20s8-4.54 9.63-6.3a1 1 0 0 0 0-1.37"></path><circle cx="13" cy="13" r="2.7"></circle></g></symbol><symbol viewBox="0 0 26 26" id="zd-svg-icon-26-dashboard"><path fill="currentColor" d="M11.027 21H5.973C5.436 21 5 20.523 5 19.935v-2.87c0-.59.436-1.065.973-1.065h5.054c.537 0 .973.476.973 1.065v2.87c0 .588-.436 1.065-.973 1.065m-.003-7H5.977c-.54 0-.977-.423-.977-.945v-7.11c0-.52.438-.945.977-.945h5.047c.54 0 .976.424.976.946v7.11c0 .521-.437.944-.976.944m3.955-9h5.042c.54 0 .979.478.979 1.069v2.863c0 .59-.439 1.068-.979 1.068h-5.042c-.54 0-.979-.478-.979-1.068V6.07c0-.59.439-1.069.979-1.069M14.972 12h5.056c.537 0 .972.42.972.94v7.12c0 .519-.435.94-.972.94h-5.056c-.537 0-.972-.421-.972-.94v-7.12c0-.52.435-.94.972-.94"></path></symbol><symbol viewBox="0 0 26 26" id="zd-svg-icon-26-ellipsis"><g fill="currentColor"><circle cx="7" cy="13" r="2"></circle><circle cx="13" cy="13" r="2"></circle><circle cx="19" cy="13" r="2"></circle></g></symbol><symbol viewBox="0 0 26 26" id="zd-svg-icon-26-email-fill"><path fill="currentColor" d="M13.14 11.949a.25.25 0 0 1-.302 0L6.183 6.83c-.358-.275-.155-.83.303-.83h13.028c.459 0 .661.555.303.83l-6.676 5.119zM22 9.491v9.527c0 .54-.473.982-1.05.982H5.05C4.473 20 4 19.558 4 19.018V9.49c0-.413.515-.638.85-.383l7.982 5.971a.3.3 0 0 0 .336 0l7.981-5.971c.336-.255.851-.03.851.383"></path></symbol><symbol viewBox="0 0 20 26" id="zd-svg-icon-26-file-document"><path fill="currentColor" d="M13.41 0H2C.9 0 0 .9 0 2v22c0 1.1.9 2 2 2h16c1.1 0 2-.9 2-2V6.58L13.41 0zm2.09 20h-11c-.28 0-.5-.22-.5-.5s.22-.5.5-.5h11c.28 0 .5.22.5.5s-.22.5-.5.5zm0-3h-11c-.28 0-.5-.22-.5-.5s.22-.5.5-.5h11c.28 0 .5.22.5.5s-.22.5-.5.5zm0-3h-11c-.28 0-.5-.22-.5-.5s.22-.5.5-.5h11c.28 0 .5.22.5.5s-.22.5-.5.5zm0-3h-11c-.28 0-.5-.22-.5-.5s.22-.5.5-.5h11c.28 0 .5.22.5.5s-.22.5-.5.5zM15 7a2 2 0 0 1-2-2V1l6 6h-4z"></path></symbol><symbol viewBox="0 0 20 26" id="zd-svg-icon-26-file-error"><path fill="currentColor" d="M13.41 0H2a2 2 0 0 0-2 2v22a2 2 0 0 0 2 2h16a2 2 0 0 0 2-2V6.58L13.41 0zm.43 19.073a.541.541 0 0 1 0 .768.54.54 0 0 1-.767 0L10 16.77l-3.073 3.07a.541.541 0 0 1-.768 0 .54.54 0 0 1 0-.767L9.23 16l-3.07-3.073a.541.541 0 0 1 0-.768.54.54 0 0 1 .767 0L10 15.23l3.073-3.073a.541.541 0 0 1 .768 0 .54.54 0 0 1 0 .767L10.77 16l3.073 3.073zM15 7a2 2 0 0 1-2-2V1l6 6h-4z"></path></symbol><symbol viewBox="0 0 20 26" id="zd-svg-icon-26-file-image"><path fill="currentColor" d="M13.41 0H2a2 2 0 0 0-2 2v22a2 2 0 0 0 2 2h16a2 2 0 0 0 2-2V6.58L13.41 0zM8.5 10a1.5 1.5 0 1 1-.001 3.001A1.5 1.5 0 0 1 8.5 10zm6.968 10H4.473a.475.475 0 0 1-.377-.76l2.31-3.088a.471.471 0 0 1 .672-.086l1.83 1.468 2.825-3.346a.529.529 0 0 1 .844.046l3.33 4.933a.533.533 0 0 1-.44.833zM15 7a2 2 0 0 1-2-2V1l6 6h-4z"></path></symbol><symbol viewBox="0 0 20 26" id="zd-svg-icon-26-file-pdf"><path fill="currentColor" d="M13.41 0H2C.9 0 0 .9 0 2v22c0 1.1.9 2 2 2h16c1.1 0 2-.9 2-2V6.58L13.41 0zm2.09 20h-11c-.28 0-.5-.22-.5-.5s.22-.5.5-.5h11c.28 0 .5.22.5.5s-.22.5-.5.5zm0-3h-11c-.28 0-.5-.22-.5-.5s.22-.5.5-.5h11c.28 0 .5.22.5.5s-.22.5-.5.5zm.5-3.444c0 .248-.22.444-.5.444h-11c-.28 0-.5-.196-.5-.444v-3.11c0-.25.22-.446.5-.446h11c.28 0 .5.196.5.444v3.112zM15 7a2 2 0 0 1-2-2V1l6 6h-4z"></path></symbol><symbol viewBox="0 0 20 26" id="zd-svg-icon-26-file-presentation"><path fill="currentColor" d="M13.41 0H2C.9 0 0 .9 0 2v22c0 1.1.9 2 2 2h16c1.1 0 2-.9 2-2V6.58L13.41 0zM6 14.5V17H3.5c-.28 0-.5-.22-.5-.5v-5c0-.28.22-.5.5-.5h9c.28 0 .5.22.5.5V14H6.5c-.28 0-.5.22-.5.5zM16.5 21h-9a.5.5 0 0 1-.5-.5v-5a.5.5 0 0 1 .5-.5h9a.5.5 0 0 1 .5.5v5a.5.5 0 0 1-.5.5zM15 7a2 2 0 0 1-2-2V1l6 6h-4z"></path></symbol><symbol viewBox="0 0 20 26" id="zd-svg-icon-26-file-spreadsheet"><path fill="currentColor" d="M13.41 0H2a2 2 0 0 0-2 2v22a2 2 0 0 0 2 2h16a2 2 0 0 0 2-2V6.58L13.41 0zM9.5 20h-5a.5.5 0 0 1 0-1h5a.5.5 0 0 1 0 1zm0-3h-5a.5.5 0 0 1 0-1h5a.5.5 0 0 1 0 1zm0-3h-5a.5.5 0 0 1 0-1h5a.5.5 0 0 1 0 1zm0-3h-5a.5.5 0 0 1 0-1h5a.5.5 0 0 1 0 1zm6 9h-3a.5.5 0 0 1 0-1h3a.5.5 0 0 1 0 1zm0-3h-3a.5.5 0 0 1 0-1h3a.5.5 0 0 1 0 1zm0-3h-3a.5.5 0 0 1 0-1h3a.5.5 0 0 1 0 1zm0-3h-3a.5.5 0 0 1 0-1h3a.5.5 0 0 1 0 1zM15 7a2 2 0 0 1-2-2V1l6 6h-4z"></path></symbol><symbol viewBox="0 0 20 26" id="zd-svg-icon-26-file-zip"><path fill="currentColor" d="M13.41 0H2a2 2 0 0 0-2 2v22a2 2 0 0 0 2 2h16a2 2 0 0 0 2-2V6.58L13.41 0zM8.5 10a.5.5 0 0 1 0 1H6v3h2.5a.5.5 0 0 1 0 1H6v3h2.5a.5.5 0 0 1 0 1H6v3h2.5a.5.5 0 0 1 0 1H6v2H5v-4H2.5a.5.5 0 0 1 0-1H5v-3H2.5a.5.5 0 0 1 0-1H5v-3H2.5a.5.5 0 0 1 0-1H5V9H2.5a.5.5 0 0 1 0-1H5V5H2.5a.5.5 0 0 1 0-1H5V1h1v5h2.5a.5.5 0 0 1 0 1H6v3h2.5zM15 7a2 2 0 0 1-2-2V1l6 6h-4z"></path></symbol><symbol viewBox="0 0 20 26" id="zd-svg-icon-26-file"><path fill="currentColor" d="M13.41 0H2a2 2 0 0 0-2 2v22a2 2 0 0 0 2 2h16a2 2 0 0 0 2-2V6.58L13.41 0zM15 7a2 2 0 0 1-2-2V1l6 6h-4z"></path></symbol><symbol viewBox="0 0 26 26" id="zd-svg-icon-26-group-fill"><path fill="currentColor" d="M23.99 20.072c.082.49-.344.928-.878.928h-5.89a.477.477 0 0 1-.485-.555 2.16 2.16 0 0 0 .001-.704 7.74 7.74 0 0 0-1.63-3.63c-.21-.256-.103-.618.223-.731a6.887 6.887 0 0 1 2.265-.38c3.232 0 5.914 2.194 6.394 5.072M21 10.5a3.5 3.5 0 1 1-7 0 3.5 3.5 0 0 1 7 0M8 13a4 4 0 1 1 0-8 4 4 0 0 1 0 8zm-6.03 8.073c-.583 0-1.048-.518-.96-1.093A7.072 7.072 0 0 1 8 14a7.072 7.072 0 0 1 6.989 5.98c.09.575-.376 1.093-.958 1.093H1.97z"></path></symbol><symbol viewBox="0 0 26 26" id="zd-svg-icon-26-help-center"><path fill="currentColor" d="M10.5 9.1c.3.3.7.4 1.1.2.4-.2.9-.3 1.4-.3s1 .1 1.4.3c.4.1.8.1 1.1-.2l2.7-2.7c.2-.2.2-.6-.1-.8C16.7 4.6 14.9 4 13 4s-3.7.6-5.1 1.6c-.3.2-.3.6-.1.8l2.7 2.7zm-1.2 5.3C9.1 14 9 13.5 9 13c0-.5.1-1 .3-1.4.1-.4.1-.8-.2-1.1L6.4 7.8c-.2-.2-.6-.2-.8.1C4.6 9.3 4 11.1 4 13c0 1.9.6 3.7 1.6 5.1.2.3.5.3.8.1l2.7-2.7c.2-.3.3-.7.2-1.1zm6.2 2.5c-.3-.3-.7-.4-1.1-.2-.4.2-.9.3-1.4.3s-1-.1-1.4-.3c-.4-.1-.8-.1-1.1.2l-2.7 2.7c-.2.2-.2.6.1.8 1.5 1 3.2 1.6 5.1 1.6s3.7-.6 5.1-1.6c.3-.2.3-.5.1-.8l-2.7-2.7zm4.9-9c-.2-.3-.5-.3-.8-.1l-2.7 2.7c-.3.3-.4.7-.2 1.1.2.4.3.9.3 1.4 0 .5-.1 1-.3 1.4-.1.4-.1.8.2 1.1l2.7 2.7c.2.2.6.2.8-.1 1-1.5 1.6-3.2 1.6-5.1 0-1.9-.6-3.7-1.6-5.1z"></path></symbol><symbol viewBox="0 0 26 26" id="zd-svg-icon-26-home-fill"><path fill="currentColor" d="M23.885 13.2l-1.328 1.639a.522.522 0 0 1-.737.084l-1.444-1.155v7.182c0 .577-.474 1.05-1.054 1.05H16.51c-.58 0-1.054-.473-1.054-1.05v-3.182a2.43 2.43 0 0 0-.716-1.732 2.448 2.448 0 0 0-1.74-.714 2.45 2.45 0 0 0-1.739.714 2.43 2.43 0 0 0-.716 1.732v3.182c0 .577-.474 1.05-1.054 1.05H6.678c-.582 0-1.054-.47-1.054-1.05v-7.182L4.18 14.923a.522.522 0 0 1-.737-.084L2.115 13.2a.52.52 0 0 1 .084-.735l10.474-8.348a.51.51 0 0 1 .654 0L23.8 12.466a.52.52 0 0 1 .084.735"></path></symbol><symbol viewBox="0 0 26 26" id="zd-svg-icon-26-inbox"><path fill="currentColor" d="M3 3v20h20V3H3zm15 15H8V8h10v10z"></path></symbol><symbol viewBox="0 0 26 26" id="zd-svg-icon-26-knowledge-base"><path fill="currentColor" d="M8 5H3.5c-.3 0-.5.2-.5.5v13c0 .3.2.5.5.5H7c3 0 4 2 4 2h1V7c0-.1-1-2-4-2zm1 10H6c-.5 0-1-.5-1-1s.5-1 1-1h3c.5 0 1 .5 1 1s-.5 1-1 1zm0-4H6c-.5 0-1-.5-1-1s.5-1 1-1h3c.5 0 1 .5 1 1s-.5 1-1 1zm5-4v14h1s1-2 4-2h3.5c.3 0 .5-.2.5-.5v-13c0-.3-.2-.5-.5-.5H18c-3 0-4 1.9-4 2zm2 7c0-.5.5-1 1-1h3c.5 0 1 .5 1 1s-.5 1-1 1h-3c-.5 0-1-.5-1-1zm0-4c0-.5.5-1 1-1h3c.5 0 1 .5 1 1s-.5 1-1 1h-3c-.5 0-1-.5-1-1z"></path></symbol><symbol viewBox="0 0 26 26" id="zd-svg-icon-26-line-chart"><path fill="currentColor" d="M21.13 6.942v1.86a.499.499 0 0 1-.125.332l-2.791 3.149a.5.5 0 0 1-.73.021L14.86 9.663a.5.5 0 0 0-.805.136l-2.536 5.265a.5.5 0 0 1-.805.136l-1.628-1.642a.5.5 0 0 0-.71-.001l-2.39 2.392a.5.5 0 0 1-.854-.354V6.942a1 1 0 0 1 1-1h14a1 1 0 0 1 1 1m-2.828 8.261L20.256 13a.5.5 0 0 1 .875.331v7.612a1 1 0 0 1-1 1h-14a1 1 0 0 1-1-1V19.83c0-.133.052-.26.146-.353l3.09-3.09a.5.5 0 0 1 .707.001l2.218 2.225a.5.5 0 0 0 .805-.136l2.537-5.267a.5.5 0 0 1 .805-.135l2.136 2.15a.5.5 0 0 0 .73-.02"></path></symbol><symbol viewBox="0 0 26 26" id="zd-svg-icon-26-macro"><path fill="none" stroke="currentColor" stroke-linejoin="round" stroke-width="2" d="M15 20l-5 3v-3H4.9c-.5 0-.9-.4-.9-.9V3.9c0-.5.4-.9.9-.9H21c.6 0 1 .4 1 .9V19c0 .5-.4.9-.9.9L15 20z"></path><path fill="currentColor" d="M16.1 9.3l-3.7 8c-.1.1-.2.2-.3.2H12c-.2 0-.2-.2-.2-.3l1.4-5.6-2.8.7h-.1c-.1 0-.2 0-.2-.1-.1-.1-.1-.2-.1-.3l1.4-5.7c0-.1.2-.2.3-.2H14c.2 0 .3.1.3.3v.1L13 9.6l2.7-.7h.1c.1 0 .2.1.2.1.1.1.1.2.1.3z"></path></symbol><symbol viewBox="0 0 26 26" id="zd-svg-icon-26-moderation"><path fill="currentColor" d="M13 17.35a1.35 1.35 0 1 1-.001-2.7 1.35 1.35 0 0 1 .001 2.7zM12 8a1 1 0 0 1 2 0v4a1 1 0 1 1-2 0V8zm9-3H5a1 1 0 0 0-1 1v12a1 1 0 0 0 1 1h5v2.545c0 .374.47.588.8.364l4.266-2.91H21a1 1 0 0 0 1-1V6a1 1 0 0 0-1-1z"></path></symbol><symbol viewBox="0 0 26 26" id="zd-svg-icon-26-organization"><path fill="none" stroke="currentColor" stroke-linecap="round" stroke-linejoin="round" stroke-width="2" d="M15 23v-8h-4v8H6.9c-.5 0-.9-.4-.9-.9V3.9c0-.5.4-.9.9-.9h12.2c.5 0 .9.4.9.9v18.2c0 .5-.4.9-.9.9H15zM10 7h6m-6 3h6"></path></symbol><symbol viewBox="0 0 26 26" id="zd-svg-icon-26-person"><g fill="currentColor"><circle cx="13" cy="9" r="4"></circle><path d="M7.019 21c-.613 0-1.105-.538-1.007-1.136C6.561 16.538 9.481 14 13 14s6.439 2.538 6.987 5.864c.099.598-.394 1.136-1.006 1.136H7.019z"></path></g></symbol><symbol viewBox="0 0 26 26" id="zd-svg-icon-26-play"><circle cx="13" cy="13" r="11" fill="none" stroke="currentColor" stroke-width="2"></circle><path fill="currentColor" d="M17 13l-6 4V9"></path></symbol><symbol viewBox="0 0 26 26" id="zd-svg-icon-26-relationshape-chat"><path fill="currentColor" d="M9.3 5.4c4.9 4.9 4.9 12.7 0 17.6L.5 14.2l8.8-8.8z"></path><path d="M19.2 15.4c-3.4-3.4-3.4-9 0-12.4l6.2 6.2-6.2 6.2z"></path></symbol><symbol viewBox="0 0 26 26" id="zd-svg-icon-26-relationshape-connect"><path fill="currentColor" d="M8.1 15.5V8.1H.4V23h15.1v-7.5z"></path><path d="M23.114 13.041l-7.484-2.53 2.53-7.484 7.483 2.53z"></path></symbol><symbol viewBox="0 0 26 26" id="zd-svg-icon-26-relationshape-explore"><path fill="currentColor" d="M.6 22.9l8.7-15 8.7 15z"></path><path d="M16.8 13V3.1l8.6 5z"></path></symbol><symbol viewBox="0 0 26 26" id="zd-svg-icon-26-relationshape-guide"><path d="M7 7.8l6-6 6 6z"></path><path fill="currentColor" d="M.5 23L13 10.4 25.5 23z"></path></symbol><symbol viewBox="0 0 26 26" id="zd-svg-icon-26-relationshape-message"><circle cx="4.9" cy="7.4" r="4.4"></circle><circle cx="18" cy="15.5" r="7.5" fill="currentColor"></circle></symbol><symbol viewBox="0 0 26 26" id="zd-svg-icon-26-relationshape-support"><path fill="currentColor" d="M14.3 5.2L5.4 2.7l-2.5 8.9-2.5 8.9 8.9 2.4 2.5-8.8z"></path><path d="M14.223 14.131l8.853-2.503 2.503 8.853-8.853 2.503z"></path></symbol><symbol viewBox="0 0 26 26" id="zd-svg-icon-26-relationshape-talk"><path d="M6.8 3.3C3.4 3.3.6 6.5.6 9.5H13c0-3-2.8-6.2-6.2-6.2z"></path><path fill="currentColor" d="M14.9 23.2c5.8 0 10.5-4.1 10.5-10.5H4.3c0 6.4 4.8 10.5 10.6 10.5z"></path></symbol><symbol viewBox="0 0 26 26" id="zd-svg-icon-26-search"><g fill="none" stroke="currentColor" stroke-linecap="round" stroke-width="2"><circle cx="11" cy="11" r="7"></circle><path d="M16 16l6 6"></path></g></symbol><symbol viewBox="0 0 26 26" id="zd-svg-icon-26-security"><path fill="currentColor" d="M21.7 6.87l-8.5-3.78a.467.467 0 0 0-.4 0L4.3 6.87a.502.502 0 0 0-.3.45V10c0 4.92 2.94 10.88 8.82 12.94a.555.555 0 0 0 .36 0C19.06 20.88 22 14.92 22 10V7.32a.502.502 0 0 0-.3-.45zm-4.012 3.31l-5.28 6.722a.877.877 0 0 1-.636.332.863.863 0 0 1-.052.002.875.875 0 0 1-.62-.257l-2.72-2.72a.875.875 0 1 1 1.24-1.237l2.022 2.022 4.67-5.945a.876.876 0 0 1 1.377 1.082z"></path></symbol><symbol viewBox="0 0 26 26" id="zd-svg-icon-26-settings-fill"><path fill="currentColor" d="M13 16.627a3.625 3.625 0 0 1-3.63-3.622A3.633 3.633 0 0 1 13 9.373a3.633 3.633 0 0 1 3.63 3.632A3.625 3.625 0 0 1 13 16.627m8.295-4.902h-.006a2.116 2.116 0 0 1-1.955-1.307l-.031-.075a2.117 2.117 0 0 1 .459-2.306.693.693 0 0 0 0-.998l-.809-.809a.71.71 0 0 0-.997 0 2.106 2.106 0 0 1-2.295.457l-.08-.033a2.109 2.109 0 0 1-1.302-1.948.705.705 0 0 0-.705-.706h-1.148a.705.705 0 0 0-.705.706c0 .855-.514 1.628-1.306 1.95-.021.009-.043.017-.063.027a2.106 2.106 0 0 1-2.308-.453.72.72 0 0 0-1.006 0l-.81.81a.708.708 0 0 0 0 .997l.007.006a2.11 2.11 0 0 1 .454 2.305c-.01.022-.018.045-.028.066a2.103 2.103 0 0 1-1.95 1.311h-.006a.706.706 0 0 0-.705.706v1.138c0 .39.316.706.705.706h.002a2.1 2.1 0 0 1 1.949 1.306l.029.069a2.11 2.11 0 0 1-.452 2.31l-.004.003a.708.708 0 0 0 0 .998l.809.809a.72.72 0 0 0 1.006 0l.005-.005a2.106 2.106 0 0 1 2.307-.452l.059.024a2.104 2.104 0 0 1 1.306 1.95v.007c0 .395.32.706.705.706h1.148c.385 0 .705-.31.705-.706v-.007c0-.855.514-1.627 1.306-1.95l.059-.024a2.106 2.106 0 0 1 2.307.452l.005.005a.71.71 0 0 0 .997 0l.809-.81a.693.693 0 0 0 0-.997l-.004-.003a2.11 2.11 0 0 1-.452-2.31l.029-.069a2.102 2.102 0 0 1 1.948-1.306h.012a.706.706 0 0 0 .705-.706v-1.138a.706.706 0 0 0-.705-.706"></path></symbol><symbol viewBox="0 0 26 26" id="zd-svg-icon-26-views-fill"><path fill="currentColor" d="M20.007 4H5.993A.993.993 0 0 0 5 4.988v8.788a.49.49 0 0 0 .496.494h2.73a.49.49 0 0 1 .496.494v.742a.49.49 0 0 0 .496.494h7.564a.49.49 0 0 0 .496-.494v-.742a.49.49 0 0 1 .496-.494h2.978a.252.252 0 0 0 .248-.247V4.988A.993.993 0 0 0 20.007 4zM9.798 8C9.362 8 9 7.563 9 7.011V6.99c0-.553.362-.99.798-.99h6.395c.445 0 .807.448.807 1s-.362 1-.807 1H9.798zm0 4C9.362 12 9 11.563 9 11.011v-.022c0-.552.362-.989.798-.989h6.395c.445 0 .807.448.807 1s-.362 1-.807 1H9.798zM21 16.52v4.46c0 .56-.447 1.02-.993 1.02H5.993C5.447 22 5 21.54 5 20.98v-4.47c0-.281.222-.51.496-.51h.993c.278 0 .496.224.496.51v.766c0 .285.218.51.496.51H18.52a.504.504 0 0 0 .496-.51v-.756c0-.286.227-.52.506-.52h.973c.278 0 .506.234.506.52"></path></symbol><symbol viewBox="0 0 26 26" id="zd-svg-icon-26-widget"><path fill="none" stroke="currentColor" stroke-linecap="round" stroke-linejoin="round" stroke-width="2" d="M4 8h18m-1 14H5c-.5 0-1-.4-1-1V5c0-.5.4-1 1-1h16c.5 0 1 .4 1 1v16c0 .6-.4 1-1 1zM9 18l3-3-3-3m5 6h4"></path></symbol><symbol viewBox="0 0 47 26" id="zd-svg-icon-26-wordmark-chat"><path fill="currentColor" d="M1 13c0-3.2 2.5-5.7 5.7-5.7 2.4 0 4.4 1.4 5.2 3.4l-2.1.9c-.5-1.3-1.7-2.1-3.1-2.1-2 0-3.4 1.6-3.4 3.5s1.5 3.5 3.5 3.5c1.5 0 2.6-.9 3.1-2.2l2.1.9c-.9 2-2.7 3.4-5.3 3.4C3.5 18.8 1 16.2 1 13zM13.9 2.5h2.3v6.4c.7-1 2-1.6 3.4-1.6 2.8 0 4.5 1.8 4.5 4.8v6.4h-2.4v-6.2c0-1.8-.9-3-2.7-3-1.6 0-2.8 1.2-2.8 3.1v6h-2.3V2.5zM26 13c0-3.5 2.6-5.7 5.5-5.7 1.5 0 2.8.7 3.7 1.7V7.6h2.3v11h-2.3V17c-.8 1.1-2.2 1.7-3.7 1.7-2.8.1-5.5-2.2-5.5-5.7zm9.3 0c0-2-1.5-3.6-3.5-3.6S28.3 11 28.3 13s1.5 3.6 3.5 3.6 3.5-1.6 3.5-3.6zm3.9-5.4H41V5l2.4-1.3v3.9h2.3v2.1h-2.3V14c0 2 .3 2.3 2.3 2.3v2.2h-.4C42 18.5 41 17.4 41 14V9.7h-1.9V7.6z"></path></symbol><symbol viewBox="0 0 85 26" id="zd-svg-icon-26-wordmark-connect"><path fill="currentColor" d="M.9 13c0-3.2 2.5-5.7 5.7-5.7 2.4 0 4.4 1.4 5.2 3.4l-2.1.9C9.2 10.3 8 9.5 6.6 9.5c-2 0-3.4 1.6-3.4 3.5s1.5 3.5 3.5 3.5c1.5 0 2.6-.9 3.1-2.2l2.1.9c-.9 2-2.7 3.4-5.3 3.4C3.4 18.7.9 16.2.9 13zm12.3 0c0-3.2 2.5-5.7 5.7-5.7s5.7 2.5 5.7 5.7-2.5 5.7-5.7 5.7-5.7-2.5-5.7-5.7zm9.1 0c0-1.9-1.5-3.5-3.4-3.5s-3.4 1.6-3.4 3.5 1.5 3.5 3.4 3.5 3.4-1.5 3.4-3.5zm4.3-5.5H29V9c.7-1 1.9-1.6 3.4-1.6 2.8 0 4.5 1.8 4.5 4.8v6.4h-2.4v-6.2c0-1.8-.9-2.9-2.7-2.9-1.6 0-2.8 1.2-2.8 3.1v6h-2.3V7.5zm12.7 0h2.3V9c.7-1 1.9-1.6 3.4-1.6 2.8 0 4.5 1.8 4.5 4.8v6.4h-2.4v-6.2c0-1.8-.9-2.9-2.7-2.9-1.6 0-2.8 1.2-2.8 3.1v6h-2.3V7.5zm12.2 5.6c0-3.2 2.5-5.8 5.7-5.8s5.6 2.3 5.6 5.6v.9h-9.1c.3 1.7 1.6 2.8 3.5 2.8 1.5 0 2.6-.8 3.2-2l1.9 1.1c-1 1.8-2.7 3-5.1 3-3.4 0-5.7-2.4-5.7-5.6zm2.3-1.3h6.6c-.4-1.6-1.6-2.5-3.2-2.5-1.7.1-2.9 1.1-3.4 2.5zM64.3 13c0-3.2 2.5-5.7 5.7-5.7 2.4 0 4.4 1.4 5.2 3.4l-2.1.9c-.5-1.3-1.7-2.1-3.1-2.1-2 0-3.4 1.6-3.4 3.5s1.5 3.5 3.5 3.5c1.5 0 2.6-.9 3.1-2.2l2.1.9c-.9 2-2.7 3.4-5.3 3.4-3.2.1-5.7-2.4-5.7-5.6zm12.2-5.5h1.9V5l2.4-1.3v3.9h2.3v2.1h-2.3V14c0 2 .3 2.3 2.3 2.3v2.2h-.4c-3.3 0-4.3-1.1-4.3-4.5V9.7h-1.9V7.5z"></path></symbol><symbol viewBox="0 0 78 26" id="zd-svg-icon-26-wordmark-explore"><path fill="currentColor" d="M1 13.1c0-3.2 2.5-5.8 5.7-5.8s5.6 2.3 5.6 5.6v.9H3.2c.3 1.7 1.6 2.8 3.5 2.8 1.5 0 2.6-.8 3.2-2l1.9 1.1c-1 1.8-2.7 3-5.1 3-3.4.1-5.7-2.4-5.7-5.6zm2.3-1.2h6.6c-.4-1.6-1.6-2.5-3.2-2.5-1.7 0-2.9 1-3.4 2.5zM17 13l-4-5.4h2.9l2.6 3.6 2.7-3.6H24L20 13l4.2 5.6h-2.9l-2.9-3.8-2.7 3.8h-2.9L17 13zm11 4.2v6.4h-2.3v-16H28v1.5c.8-1.1 2.2-1.8 3.7-1.8 2.9 0 5.5 2.2 5.5 5.7s-2.7 5.7-5.4 5.7c-1.7.1-3-.5-3.8-1.5zm6.8-4.2c0-2-1.5-3.6-3.5-3.6S27.8 11 27.8 13s1.5 3.6 3.5 3.6 3.5-1.6 3.5-3.6zm4.4-10.5h2.3v16h-2.3v-16zm4.4 10.6c0-3.2 2.5-5.7 5.7-5.7S55 9.9 55 13.1s-2.5 5.7-5.7 5.7-5.7-2.5-5.7-5.7zm9 0c0-1.9-1.5-3.5-3.4-3.5s-3.4 1.6-3.4 3.5 1.5 3.5 3.4 3.5 3.4-1.6 3.4-3.5zM57 7.6h2.3v1.7c.6-1.1 1.7-1.7 3.2-1.7h1.1v2.2h-1.4c-2 0-2.8 1-2.8 3.3v5.4H57V7.6zm7.7 5.5c0-3.2 2.5-5.8 5.7-5.8S76 9.6 76 12.9v.9h-9.1c.3 1.7 1.6 2.8 3.5 2.8 1.5 0 2.6-.8 3.2-2l1.9 1.1c-1 1.8-2.7 3-5.1 3-3.4.1-5.7-2.4-5.7-5.6zm2.4-1.2h6.6c-.4-1.6-1.6-2.5-3.2-2.5-1.7 0-3 1-3.4 2.5z"></path></symbol><symbol viewBox="0 0 57 26" id="zd-svg-icon-26-wordmark-guide"><path fill="currentColor" d="M.9 13.1c0-3.5 2.6-5.7 5.5-5.7 1.4 0 2.8.6 3.6 1.7V7.6h2.3v10.7c0 3.2-2 5.6-5.5 5.6-2.7 0-4.6-1.3-5.4-3.1l2.2-1c.5 1.2 1.6 2 3.3 2 2 0 3.2-1.5 3.2-3.3V17c-.8 1.1-2.2 1.8-3.7 1.8-2.8-.1-5.5-2.3-5.5-5.7zm9.3-.1c0-1.9-1.5-3.5-3.5-3.5-1.9 0-3.5 1.5-3.5 3.5s1.5 3.6 3.5 3.6 3.5-1.6 3.5-3.6zm4.1 1V7.6h2.4v6.2c0 1.8.9 2.9 2.6 2.9 1.6 0 2.8-1.2 2.8-3.1v-6h2.3v10.9h-2.3v-1.4c-.7 1-1.9 1.6-3.3 1.6-2.9 0-4.5-1.7-4.5-4.7zM28.1 2.8c.9 0 1.6.7 1.6 1.6s-.7 1.5-1.6 1.5c-.9 0-1.6-.7-1.6-1.6s.7-1.5 1.6-1.5zm-1.2 4.8h2.4v10.9h-2.4V7.6zm4.2 5.5c0-3.5 2.6-5.7 5.5-5.7 1.4 0 2.8.6 3.6 1.6V2.6h2.3v16h-2.3V17c-.8 1.1-2.2 1.7-3.7 1.7-2.7 0-5.4-2.2-5.4-5.6zm9.3-.1c0-1.9-1.5-3.5-3.5-3.5-1.9 0-3.5 1.6-3.5 3.5s1.5 3.6 3.5 3.6 3.5-1.6 3.5-3.6zm4.1.1c0-3.2 2.5-5.7 5.7-5.7s5.6 2.3 5.6 5.6v.9h-9.1c.3 1.7 1.6 2.8 3.5 2.8 1.5 0 2.6-.8 3.2-2l1.9 1.1c-1 1.8-2.7 3-5.1 3-3.4-.1-5.7-2.5-5.7-5.7zm2.4-1.2h6.6c-.4-1.6-1.6-2.5-3.2-2.5-1.7 0-3 1-3.4 2.5z"></path></symbol><symbol viewBox="0 0 115 26" id="zd-svg-icon-26-wordmark-help-center"><path fill="currentColor" d="M1.1 2.3h2.4v6.5c.8-1 2-1.6 3.4-1.6 2.8 0 4.5 1.8 4.5 4.8v6.5H9v-6.3c0-1.8-.9-3-2.7-3-1.6 0-2.8 1.2-2.8 3.2v6.1H1.1V2.3zM13.2 13c0-3.3 2.5-5.8 5.8-5.8s5.7 2.4 5.7 5.7v.9h-9.2c.3 1.7 1.6 2.8 3.6 2.8 1.5 0 2.7-.8 3.2-2l2 1.1c-1 1.8-2.7 3-5.2 3-3.5.1-5.9-2.5-5.9-5.7zm2.4-1.2h6.7c-.4-1.6-1.6-2.5-3.3-2.5-1.6 0-2.9 1-3.4 2.5zm11-9.5H29v16.2h-2.4V2.3zm7.2 14.9v6.5h-2.4V7.4h2.4V9c.8-1.1 2.2-1.8 3.7-1.8 2.9 0 5.5 2.2 5.5 5.8 0 3.5-2.7 5.8-5.5 5.8-1.5 0-2.9-.6-3.7-1.6zm6.8-4.2c0-2-1.5-3.6-3.5-3.6S33.6 11 33.6 13s1.5 3.6 3.5 3.6 3.5-1.6 3.5-3.6zm8.3 0c0-3.3 2.6-5.8 5.8-5.8 2.5 0 4.4 1.4 5.3 3.4l-2.1.9c-.6-1.3-1.7-2.1-3.1-2.1-2 0-3.5 1.6-3.5 3.6s1.5 3.6 3.5 3.6c1.5 0 2.6-.9 3.1-2.2l2.2.9c-.9 2-2.7 3.5-5.3 3.5-3.4 0-5.9-2.6-5.9-5.8zm12.2 0c0-3.3 2.5-5.8 5.8-5.8s5.7 2.4 5.7 5.7v.9h-9.2c.3 1.7 1.6 2.8 3.6 2.8 1.5 0 2.7-.8 3.2-2l2 1.1c-1 1.8-2.7 3-5.2 3-3.5.1-5.9-2.5-5.9-5.7zm2.4-1.2h6.7c-.4-1.6-1.6-2.5-3.3-2.5-1.7 0-3 1-3.4 2.5zm11-4.4h2.4v1.4c.8-1 2-1.7 3.4-1.7 2.8 0 4.5 1.8 4.5 4.8v6.5h-2.4v-6.3c0-1.8-.9-3-2.7-3-1.6 0-2.8 1.2-2.8 3.2v6.1h-2.4v-11zm11.6 0H88V4.8l2.4-1.3v3.9h2.4v2.1h-2.4V14c0 2 .3 2.3 2.4 2.3v2.2h-.4c-3.4 0-4.4-1-4.4-4.5V9.6h-1.9V7.4zm7.7 5.6c0-3.3 2.5-5.8 5.8-5.8s5.7 2.4 5.7 5.7v.9H96c.3 1.7 1.6 2.8 3.6 2.8 1.5 0 2.7-.8 3.2-2l2 1.1c-1 1.8-2.7 3-5.2 3-3.5.1-5.8-2.5-5.8-5.7zm2.4-1.2h6.7c-.4-1.6-1.6-2.5-3.3-2.5-1.7 0-3 1-3.4 2.5zm10.9-4.4h2.4v1.8c.6-1.1 1.7-1.8 3.2-1.8h1.1v2.3h-1.4c-2 0-2.8 1-2.8 3.3v5.5h-2.4V7.4z"></path></symbol><symbol viewBox="0 0 56 26" id="zd-svg-icon-26-wordmark-inbox"><path fill="currentColor" d="M6.5 7.4h2.4v1.4c.8-1 2-1.7 3.4-1.7 2.8 0 4.5 1.8 4.5 4.8v6.5h-2.4v-6.3c0-1.8-.9-3-2.7-3-1.6 0-2.8 1.2-2.8 3.2v6.1H6.5v-11zM2.8 2.5c.9 0 1.6.7 1.6 1.6s-.7 1.6-1.6 1.6c-1 0-1.6-.7-1.6-1.6s.7-1.6 1.6-1.6zM1.6 7.4H4v11.1H1.6V7.4zm19.8 9.5v1.5h-2.3V2.3h2.3v6.6c.8-1 2.2-1.7 3.7-1.7 2.9 0 5.5 2.2 5.5 5.7s-2.7 5.7-5.5 5.7c-1.4.1-2.9-.6-3.7-1.7zm6.9-4c0-2-1.5-3.6-3.5-3.6s-3.5 1.6-3.5 3.6 1.5 3.6 3.5 3.6c1.9 0 3.5-1.6 3.5-3.6zm3.7 0c0-3.2 2.5-5.7 5.7-5.7s5.7 2.5 5.7 5.7-2.6 5.7-5.7 5.7c-3.1.1-5.7-2.5-5.7-5.7zm9.2 0c0-1.9-1.5-3.5-3.4-3.5s-3.4 1.6-3.4 3.5 1.5 3.5 3.4 3.5c1.9.1 3.4-1.5 3.4-3.5zm6.8-.1l-4-5.4h2.9l2.7 3.6 2.7-3.6H55l-4 5.4 4.3 5.6h-2.9l-2.9-3.8-2.8 3.8h-2.9l4.2-5.6z"></path></symbol><symbol viewBox="0 0 94 26" id="zd-svg-icon-26-wordmark-message"><path fill="currentColor" d="M1.1 7.6h2.3v1.3c.7-1 1.8-1.5 3.2-1.5 1.8 0 3 .7 3.6 2 .7-1.2 2.1-2 3.7-2 3 0 4.5 1.8 4.5 4.6v6.6H16v-6.4c0-1.6-.9-2.7-2.5-2.7-1.5 0-2.6 1-2.6 3v6.2H8.6V12c0-1.6-.9-2.6-2.5-2.6-1.5 0-2.7 1-2.7 3.1v6.1H1.1v-11zm19 5.5c0-3.2 2.5-5.8 5.7-5.8s5.6 2.3 5.6 5.6v.9h-9.1c.3 1.7 1.6 2.8 3.5 2.8 1.5 0 2.6-.8 3.2-2l1.9 1.1c-1 1.8-2.7 3-5.1 3-3.3 0-5.7-2.4-5.7-5.6zm2.4-1.2h6.6c-.4-1.6-1.6-2.5-3.2-2.5-1.7 0-2.9 1-3.4 2.5zm10.1 4.4l2.1-1.1c.6 1 1.6 1.6 2.9 1.6 1.4 0 2.1-.7 2.1-1.4 0-.9-1.3-1.1-2.7-1.4-1.9-.4-3.8-1-3.8-3.2 0-1.7 1.7-3.3 4.3-3.3 2.1 0 3.6.8 4.5 2.1l-2 1.1c-.5-.8-1.3-1.3-2.5-1.3-1.3 0-1.9.6-1.9 1.3 0 .8.9 1 2.6 1.3 1.8.4 3.9 1 3.9 3.3 0 1.6-1.5 3.5-4.5 3.5-2.5-.1-4.1-.9-5-2.5zm10.6 0l2.1-1.1c.6 1 1.6 1.6 2.9 1.6 1.4 0 2.1-.7 2.1-1.4 0-.9-1.3-1.1-2.7-1.4-1.9-.4-3.8-1-3.8-3.2 0-1.7 1.7-3.3 4.3-3.3 2.1 0 3.6.8 4.5 2.1l-2 1.1c-.6-1-1.4-1.4-2.6-1.4-1.3 0-1.9.6-1.9 1.3 0 .8.9 1 2.6 1.3 1.8.4 3.9 1 3.9 3.3 0 1.6-1.5 3.5-4.5 3.5-2.4 0-3.9-.8-4.9-2.4zM54 13c0-3.5 2.6-5.7 5.5-5.7 1.5 0 2.8.7 3.7 1.7V7.6h2.3v11h-2.3V17c-.8 1.1-2.2 1.7-3.7 1.7-2.8 0-5.5-2.2-5.5-5.7zm9.3 0c0-2-1.5-3.6-3.5-3.6S56.3 11 56.3 13s1.5 3.6 3.5 3.6 3.5-1.6 3.5-3.6zm4.3 0c0-3.5 2.6-5.7 5.5-5.7 1.4 0 2.8.7 3.6 1.7V7.6H79v10.7c0 3.2-2 5.6-5.5 5.6-2.7 0-4.6-1.3-5.4-3.1l2.2-1c.5 1.2 1.6 2 3.3 2 2 0 3.2-1.5 3.2-3.4V17c-.8 1.1-2.2 1.8-3.7 1.8-2.8-.1-5.5-2.3-5.5-5.8zm9.3 0c0-2-1.5-3.6-3.5-3.6S69.9 11 69.9 13s1.5 3.6 3.5 3.6 3.5-1.6 3.5-3.6zm4.2.1c0-3.2 2.5-5.8 5.7-5.8s5.6 2.3 5.6 5.6v.9h-9.1c.3 1.7 1.6 2.8 3.5 2.8 1.5 0 2.6-.8 3.2-2l1.9 1.1c-1 1.8-2.7 3-5.1 3-3.4 0-5.7-2.4-5.7-5.6zm2.4-1.2h6.6c-.4-1.6-1.6-2.5-3.2-2.5-1.7 0-3 1-3.4 2.5z"></path></symbol><symbol viewBox="0 0 82 26" id="zd-svg-icon-26-wordmark-support"><path fill="currentColor" d="M1.2 16.3l2.1-1.1c.6 1 1.6 1.6 2.9 1.6 1.4 0 2.1-.7 2.1-1.4 0-.9-1.3-1.1-2.7-1.4-1.9-.4-3.8-1-3.8-3.2 0-1.7 1.7-3.3 4.3-3.3 2.1 0 3.6.8 4.5 2.1l-2 1.1c-.7-1-1.5-1.4-2.7-1.4-1.2 0-1.9.5-1.9 1.3s.9 1 2.6 1.3c1.8.4 3.9 1 3.9 3.3 0 1.6-1.5 3.5-4.5 3.5-2.3 0-3.9-.8-4.8-2.4zm11.2-2.4V7.5h2.4v6.2c0 1.8.9 2.9 2.7 2.9 1.6 0 2.8-1.2 2.8-3.1v-6h2.3v11h-2.3v-1.4c-.7 1-1.9 1.6-3.3 1.6-3 0-4.6-1.8-4.6-4.8zm15 3.3v6.4h-2.3v-16h2.3v1.5c.8-1.1 2.2-1.8 3.7-1.8 2.9 0 5.5 2.2 5.5 5.7s-2.7 5.7-5.4 5.7c-1.6 0-3-.5-3.8-1.5zm6.8-4.2c0-2-1.5-3.6-3.5-3.6S27.2 11 27.2 13s1.5 3.6 3.5 3.6 3.5-1.6 3.5-3.6zm6.7 4.2v6.4h-2.3v-16h2.3v1.5c.8-1.1 2.2-1.8 3.7-1.8 2.9 0 5.5 2.2 5.5 5.7s-2.7 5.7-5.4 5.7c-1.6 0-3-.5-3.8-1.5zm6.8-4.2c0-2-1.5-3.6-3.5-3.6S40.7 11 40.7 13s1.5 3.6 3.5 3.6 3.5-1.6 3.5-3.6zm3.9 0c0-3.2 2.5-5.7 5.7-5.7S63 9.8 63 13s-2.5 5.7-5.7 5.7-5.7-2.5-5.7-5.7zm9 0c0-1.9-1.5-3.5-3.4-3.5s-3.4 1.6-3.4 3.5 1.5 3.5 3.4 3.5 3.4-1.5 3.4-3.5zM65 7.5h2.3v1.7c.6-1.1 1.7-1.7 3.2-1.7h1.1v2.2h-1.4c-2 0-2.8 1-2.8 3.3v5.4H65V7.5zm8.1 0H75V5l2.4-1.3v3.9h2.3v2.1h-2.3V14c0 2 .3 2.3 2.3 2.3v2.2h-.4c-3.3 0-4.3-1-4.3-4.5V9.6h-1.9V7.5z"></path></symbol><symbol viewBox="0 0 39 26" id="zd-svg-icon-26-wordmark-talk"><path fill="currentColor" d="M1.1 7.5H3V4.9l2.4-1.3v3.9h2.3v2.1H5.3V14c0 2 .3 2.3 2.3 2.3v2.2h-.3C4 18.5 3 17.4 3 14V9.6H1.1V7.5zm7.7 5.4c0-3.5 2.6-5.7 5.5-5.7 1.4 0 2.8.6 3.6 1.6V7.5h2.3v11h-2.3V17c-.8 1.1-2.2 1.7-3.7 1.7-2.7-.1-5.4-2.3-5.4-5.8zm9.3 0c0-2-1.5-3.6-3.5-3.6s-3.5 1.6-3.5 3.6 1.5 3.6 3.5 3.6 3.5-1.6 3.5-3.6zm4.7-10.5h2.3v16h-2.3v-16zm9.1 11.2l-1.8 2v2.9h-2.3v-16h2.3V13L35 7.5h2.8l-4.3 4.7 4.4 6.3h-2.6l-3.4-4.9z"></path></symbol><symbol viewBox="0 0 88 26" id="zd-svg-icon-26-wordmark-zendesk"><path fill="currentColor" d="M57.885 16.423a4.301 4.301 0 0 0 3.056-1.187l1.51 1.634a5.965 5.965 0 0 1-4.545 1.794c-3.699 0-6.087-2.451-6.087-5.773a5.661 5.661 0 0 1 5.752-5.774c3.672 0 5.751 2.794 5.573 6.67h-8.67a3.128 3.128 0 0 0 3.415 2.636m2.645-4.482a2.77 2.77 0 0 0-2.927-2.608 2.984 2.984 0 0 0-3.134 2.608zM.9 16.302l6.681-6.786H1.056V7.387h9.619V9.56l-6.68 6.786h6.77v2.129H.9v-2.173zm17.365.121a4.301 4.301 0 0 0 3.056-1.187l1.51 1.634a5.965 5.965 0 0 1-4.546 1.794c-3.698 0-6.086-2.451-6.086-5.773a5.661 5.661 0 0 1 5.751-5.774c3.673 0 5.752 2.794 5.574 6.67H14.85a3.128 3.128 0 0 0 3.415 2.636m2.644-4.48a2.77 2.77 0 0 0-2.927-2.608 2.984 2.984 0 0 0-3.133 2.607zm17.044.954a5.538 5.538 0 0 1 5.566-5.764 4.8 4.8 0 0 1 3.697 1.665V2.252h2.362v16.194h-2.362v-1.534a4.743 4.743 0 0 1-3.719 1.752 5.589 5.589 0 0 1-5.544-5.764m9.398-.022a3.517 3.517 0 1 0-7.032-.004 3.52 3.52 0 1 0 7.037 0M64.69 16.09l2.136-1.108a3.173 3.173 0 0 0 2.85 1.618c1.337 0 2.028-.686 2.028-1.463 0-.887-1.292-1.087-2.694-1.372-1.893-.402-3.851-1.024-3.851-3.308 0-1.752 1.67-3.372 4.298-3.348a5.086 5.086 0 0 1 4.477 2.15l-1.982 1.087a2.876 2.876 0 0 0-2.494-1.264c-1.27 0-1.921.622-1.921 1.331 0 .799 1.024 1.02 2.628 1.373 1.825.399 3.896.997 3.896 3.304 0 1.53-1.335 3.593-4.498 3.568a5.211 5.211 0 0 1-4.876-2.573m15.789-2.567l-1.871 2.04v2.884h-2.36V2.252h2.36v10.6l5.011-5.5h2.872l-4.342 4.747 4.453 6.343h-2.672l-3.451-4.924zM30.82 7.128c-2.807 0-5.157 1.818-5.157 4.835v6.477h2.406v-6.175a2.63 2.63 0 0 1 2.827-2.907c1.781 0 2.673 1.088 2.673 2.907v6.175h2.406v-6.477c0-3.02-2.35-4.835-5.156-4.835"></path></symbol><symbol viewBox="0 0 26 26" id="zd-svg-icon-26-zendesk"><path fill="currentColor" d="M12 8.2v14.5H0zM12 3c0 3.3-2.7 6-6 6S0 6.3 0 3h12zm2 19.7c0-3.3 2.7-6 6-6s6 2.7 6 6H14zm0-5.2V3h12z"></path></symbol></svg>
