<svg xmlns="http://www.w3.org/2000/svg" width="124" height="20" focusable="false" viewBox="0 0 124 20">
  <path fill="#6e5494" d="M0 0h124v20H0z"/>
  <path fill="#fff" d="M14 2.5a7.85 7.85 0 0 0-8 7.69 7.73 7.73 0 0 0 5.47 7.3c.4.07.54-.17.54-.37v-1.31c-2.22.46-2.69-1-2.69-1a2.06 2.06 0 0 0-.89-1.13c-.72-.47.06-.46.06-.46A1.65 1.65 0 0 1 9.7 14a1.76 1.76 0 0 0 2.33.64 1.59 1.59 0 0 1 .51-1c-1.78-.2-3.64-.86-3.64-3.8a2.93 2.93 0 0 1 .82-2.07 2.64 2.64 0 0 1 .08-2s.67-.21 2.2.79a7.82 7.82 0 0 1 4 0c1.53-1 2.2-.79 2.2-.79a2.69 2.69 0 0 1 .08 2 2.93 2.93 0 0 1 .82 2.07c0 3-1.87 3.6-3.65 3.79A1.84 1.84 0 0 1 16 15v2.11c0 .26.14.44.55.37a7.64 7.64 0 0 0 5.06-9.73A8 8 0 0 0 14 2.5m20.82 7.72c0 1.72-.8 2.81-2.07 2.81a1.15 1.15 0 0 1-1.24-.87h-.1a1.32 1.32 0 0 1-1.31.84c-1.11 0-1.86-.91-1.86-2.27s.76-2.21 1.83-2.21a1.32 1.32 0 0 1 1.25.76h.1v-.65h1v3c0 .38.2.61.55.61.6 0 1-.76 1-1.93A3.17 3.17 0 0 0 30.45 7a3.48 3.48 0 0 0-3.55 3.71 3.45 3.45 0 0 0 3.75 3.64 5.18 5.18 0 0 0 1.58-.21V15a5.71 5.71 0 0 1-1.64.22 4.25 4.25 0 0 1-4.59-4.5 4.27 4.27 0 0 1 4.5-4.48c2.56 0 4.32 1.62 4.32 3.98zm-5.5.54c0 .82.38 1.32 1 1.32s1-.51 1-1.32-.4-1.33-1-1.33-1 .49-1 1.33zm6.81 2.41l3.12-3.88V9.2h-3.09V8.12h4.68V9l-3 3.8v.1h3.06V14h-4.77zm11.2-.79a2.43 2.43 0 0 1-2.61 1.74C43 14.12 42 13 42 11.08S43 8 44.71 8s2.68 1.11 2.68 3v.43h-4.1v.07a1.46 1.46 0 0 0 1.47 1.59 1.3 1.3 0 0 0 1.31-.68zm-4-1.89h2.77a1.33 1.33 0 0 0-1.35-1.43 1.41 1.41 0 0 0-1.46 1.43zm5.4-2.37H50v.94h.1A1.75 1.75 0 0 1 51.85 8c1.31 0 2 .78 2 2.19V14h-1.31v-3.49c0-.89-.37-1.34-1.18-1.34a1.26 1.26 0 0 0-1.3 1.41V14h-1.33zm6.44 2.94c0-1.86.93-3 2.41-3a1.91 1.91 0 0 1 1.79 1h.09V5.85h1.33V14H59.5v-.93h-.09a2 2 0 0 1-1.83 1c-1.49.03-2.41-1.14-2.41-3.01zm1.36 0c0 1.19.55 1.9 1.47 1.9s1.47-.72 1.47-1.9-.56-1.9-1.47-1.9-1.47.72-1.47 1.9zm11.03 1.32A2.43 2.43 0 0 1 65 14.12c-1.73 0-2.77-1.15-2.77-3S63.24 8 64.94 8s2.68 1.11 2.68 3v.43h-4.1v.07A1.45 1.45 0 0 0 65 13.06a1.3 1.3 0 0 0 1.31-.68zm-4-1.89h2.77a1.33 1.33 0 0 0-1.35-1.43 1.41 1.41 0 0 0-1.46 1.43zM71.18 8c1.39 0 2.27.61 2.37 1.68h-1.26c-.09-.4-.48-.68-1.11-.68s-1.06.29-1.06.71.28.54.87.67l1 .24c1.13.25 1.65.73 1.65 1.6 0 1.13-1 1.88-2.5 1.88s-2.39-.64-2.5-1.7H70c.13.43.54.69 1.21.69s1.14-.3 1.14-.73-.26-.54-.81-.67l-1-.24c-1.12-.26-1.66-.78-1.66-1.67-.06-1.04.91-1.78 2.3-1.78zm7.48.12h1.55l-2.34 2.52 2.5 3.36h-1.61l-1.88-2.52-.48.52v2h-1.33V5.85h1.33v4.67h.09zM81 14.56h1.34c.09.4.56.66 1.29.66.91 0 1.45-.43 1.45-1.17v-1.11H85a1.93 1.93 0 0 1-1.8 1c-1.48 0-2.41-1.15-2.41-2.91s.93-3 2.43-3a2 2 0 0 1 1.82 1h.09v-.91h1.27V14c0 1.36-1.09 2.21-2.8 2.21-1.51.02-2.5-.64-2.6-1.65zM85.09 11c0-1.12-.57-1.84-1.49-1.84s-1.46.72-1.46 1.84.53 1.83 1.46 1.83 1.49-.71 1.49-1.83zm2.61 1.33c0-1.06.8-1.67 2.23-1.76l1.52-.09V10c0-.58-.39-.9-1.11-.9s-1 .22-1.15.61h-1.26C88 8.67 89 8 90.4 8s2.36.73 2.36 2v4h-1.28v-.81h-.09a1.94 1.94 0 0 1-1.74.91 1.77 1.77 0 0 1-1.95-1.77zm3.75-.48v-.47l-1.33.08c-.75 0-1.1.32-1.1.8s.43.79 1 .79a1.29 1.29 0 0 0 1.43-1.2zm2.91-3.73h1.29V9h.09a1.55 1.55 0 0 1 1.55-1 2.15 2.15 0 0 1 .55.06v1.26a2.89 2.89 0 0 0-.68-.07 1.34 1.34 0 0 0-1.46 1.36V14h-1.34zm4.14 2.94c0-1.86.93-3 2.42-3a1.89 1.89 0 0 1 1.78 1h.09V5.85h1.33V14h-1.29v-.93h-.09a2 2 0 0 1-1.82 1c-1.49.03-2.42-1.14-2.42-3.01zm1.36 0c0 1.19.56 1.9 1.47 1.9s1.48-.72 1.48-1.9-.57-1.9-1.48-1.9-1.47.72-1.47 1.9zm11.04 1.32a2.45 2.45 0 0 1-2.62 1.74c-1.72 0-2.77-1.15-2.77-3S106.57 8 108.27 8 111 9.12 111 11v.43h-4.1v.07a1.46 1.46 0 0 0 1.47 1.59 1.3 1.3 0 0 0 1.31-.68zm-4-1.89h2.76a1.32 1.32 0 0 0-1.35-1.43 1.39 1.39 0 0 0-1.45 1.43zm5.39-2.37h1.28v.94h.1A1.75 1.75 0 0 1 115.41 8c1.31 0 2 .78 2 2.19V14h-1.31v-3.49c0-.89-.37-1.34-1.18-1.34a1.26 1.26 0 0 0-1.3 1.41V14h-1.33z"/>
</svg>
